<svg width="32" height="32" viewBox="0 0 32 32" fill="none" xmlns="http://www.w3.org/2000/svg">
<path fill-rule="evenodd" clip-rule="evenodd" d="M24.5454 7H8.24561C7.69332 7 7.24561 7.44772 7.24561 8V26C7.24561 26.5523 7.69332 27 8.24561 27H24.5454C25.0977 27 25.5454 26.5523 25.5454 26V8C25.5454 7.44772 25.0977 7 24.5454 7ZM8.24561 6C7.14104 6 6.24561 6.89543 6.24561 8V26C6.24561 27.1046 7.14104 28 8.24561 28H24.5454C25.65 28 26.5454 27.1046 26.5454 26V8C26.5454 6.89543 25.65 6 24.5454 6H8.24561Z" fill="white"/>
<path fill-rule="evenodd" clip-rule="evenodd" d="M21.78 4.01398C22.0562 4.0184 22.2769 4.21744 22.273 4.45856L22.2076 8.55417C22.2037 8.7953 21.9767 8.98719 21.7006 8.98277C21.4245 8.97836 21.2038 8.77932 21.2077 8.53819L21.2731 4.44258C21.277 4.20146 21.5039 4.00957 21.78 4.01398Z" fill="white"/>
<path fill-rule="evenodd" clip-rule="evenodd" d="M10.8033 4.03254C11.0794 4.03695 11.3001 4.23527 11.2963 4.47549L11.2311 8.55581C11.2272 8.79603 11.0003 8.98719 10.7242 8.98278C10.4481 8.97836 10.2273 8.78005 10.2312 8.53983L10.2964 4.45951C10.3002 4.21929 10.5272 4.02812 10.8033 4.03254Z" fill="white"/>
<path fill-rule="evenodd" clip-rule="evenodd" d="M21.7461 10.0537C22.0222 10.0537 22.2461 9.82985 22.2461 9.55371C22.2461 9.27757 22.0222 9.05371 21.7461 9.05371C21.47 9.05371 21.2461 9.27757 21.2461 9.55371C21.2461 9.82985 21.47 10.0537 21.7461 10.0537ZM21.7461 11.0537C22.5745 11.0537 23.2461 10.3821 23.2461 9.55371C23.2461 8.72528 22.5745 8.05371 21.7461 8.05371C20.9177 8.05371 20.2461 8.72528 20.2461 9.55371C20.2461 10.3821 20.9177 11.0537 21.7461 11.0537Z" fill="white"/>
<path fill-rule="evenodd" clip-rule="evenodd" d="M10.7538 10.0649C11.0299 10.0649 11.2538 9.84108 11.2538 9.56494C11.2538 9.2888 11.0299 9.06494 10.7538 9.06494C10.4776 9.06494 10.2538 9.2888 10.2538 9.56494C10.2538 9.84108 10.4776 10.0649 10.7538 10.0649ZM10.7538 11.0649C11.5822 11.0649 12.2538 10.3934 12.2538 9.56494C12.2538 8.73651 11.5822 8.06494 10.7538 8.06494C9.92536 8.06494 9.25378 8.73651 9.25378 9.56494C9.25378 10.3934 9.92536 11.0649 10.7538 11.0649Z" fill="white"/>
<path fill-rule="evenodd" clip-rule="evenodd" d="M9.25096 14.5879C9.2494 14.3117 9.47199 14.0866 9.74813 14.0851L22.7404 14.0117C23.0166 14.0101 23.2417 14.2327 23.2432 14.5088C23.2448 14.785 23.0222 15.0101 22.7461 15.0116L9.75378 15.085C9.47764 15.0866 9.25252 14.864 9.25096 14.5879Z" fill="white"/>
<path fill-rule="evenodd" clip-rule="evenodd" d="M14.9068 18.5527C14.9068 18.2766 15.1306 18.0527 15.4068 18.0527H17.3842C17.6604 18.0527 17.8842 18.2766 17.8842 18.5527C17.8842 18.8289 17.6604 19.0527 17.3842 19.0527H15.4068C15.1306 19.0527 14.9068 18.8289 14.9068 18.5527Z" fill="white"/>
<path fill-rule="evenodd" clip-rule="evenodd" d="M20.3336 18.5317C20.3336 18.2556 20.5575 18.0317 20.8336 18.0317H22.8111C23.0872 18.0317 23.3111 18.2556 23.3111 18.5317C23.3111 18.8079 23.0872 19.0317 22.8111 19.0317H20.8336C20.5575 19.0317 20.3336 18.8079 20.3336 18.5317Z" fill="white"/>
<path fill-rule="evenodd" clip-rule="evenodd" d="M20.2461 24.5034C20.2461 24.2273 20.47 24.0034 20.7461 24.0034H22.7235C22.9997 24.0034 23.2235 24.2273 23.2235 24.5034C23.2235 24.7796 22.9997 25.0034 22.7235 25.0034H20.7461C20.47 25.0034 20.2461 24.7796 20.2461 24.5034Z" fill="white"/>
<path fill-rule="evenodd" clip-rule="evenodd" d="M14.9068 24.5249C14.9068 24.2488 15.1306 24.0249 15.4068 24.0249H17.3842C17.6604 24.0249 17.8842 24.2488 17.8842 24.5249C17.8842 24.801 17.6604 25.0249 17.3842 25.0249H15.4068C15.1306 25.0249 14.9068 24.801 14.9068 24.5249Z" fill="white"/>
<path fill-rule="evenodd" clip-rule="evenodd" d="M9.25378 24.5034C9.25378 24.2273 9.47764 24.0034 9.75378 24.0034H11.7312C12.0074 24.0034 12.2312 24.2273 12.2312 24.5034C12.2312 24.7796 12.0074 25.0034 11.7312 25.0034H9.75378C9.47764 25.0034 9.25378 24.7796 9.25378 24.5034Z" fill="white"/>
<path fill-rule="evenodd" clip-rule="evenodd" d="M9.27637 18.5317C9.27637 18.2556 9.50022 18.0317 9.77637 18.0317H11.7538C12.03 18.0317 12.2538 18.2556 12.2538 18.5317C12.2538 18.8079 12.03 19.0317 11.7538 19.0317H9.77637C9.50022 19.0317 9.27637 18.8079 9.27637 18.5317Z" fill="white"/>
<path fill-rule="evenodd" clip-rule="evenodd" d="M20.2445 21.5293C20.2437 21.2532 20.4669 21.0286 20.743 21.0278L22.7426 21.0216C23.0188 21.0207 23.2433 21.2439 23.2442 21.52C23.245 21.7962 23.0219 22.0207 22.7457 22.0216L20.7461 22.0277C20.4699 22.0286 20.2454 21.8054 20.2445 21.5293Z" fill="white"/>
<path fill-rule="evenodd" clip-rule="evenodd" d="M14.9037 21.56C14.9019 21.2839 15.1244 21.0587 15.4005 21.0569L17.378 21.0446C17.6541 21.0429 17.8794 21.2653 17.8811 21.5414C17.8828 21.8176 17.6604 22.0428 17.3842 22.0446L15.4068 22.0569C15.1306 22.0586 14.9054 21.8362 14.9037 21.56Z" fill="white"/>
<path fill-rule="evenodd" clip-rule="evenodd" d="M9.25378 21.5386C9.25378 21.2624 9.47764 21.0386 9.75378 21.0386H11.8188C12.0949 21.0386 12.3188 21.2624 12.3188 21.5386C12.3188 21.8147 12.0949 22.0386 11.8188 22.0386H9.75378C9.47764 22.0386 9.25378 21.8147 9.25378 21.5386Z" fill="white"/>
</svg>
