<svg width="18" height="22" viewBox="0 0 18 22" fill="none" xmlns="http://www.w3.org/2000/svg">
<path d="M15.7142 6.20005V19.2584C15.7142 20.5129 14.7078 21.54 13.4787 21.54H4.3619C3.12315 21.54 2.12638 20.5129 2.12638 19.2584V6.18048C0.616848 5.9727 -0.0610977 4.06648 1.05184 2.93063C1.39082 2.58467 1.85558 2.36808 2.37797 2.36808H7.33289C7.1005 0.748047 8.95863 -0.150659 10.0139 0.936218C10.3913 1.32139 10.5363 1.82514 10.4595 2.36808H15.6179C17.2629 2.36808 18.1443 4.42228 16.9441 5.63749C16.6243 5.96385 16.1893 6.17064 15.7149 6.20005H15.7142ZM8.34895 2.36712H9.4523C9.73269 1.79378 8.98754 1.12246 8.47474 1.6458C8.28076 1.84377 8.25196 2.17895 8.34894 2.36712H8.34895ZM3.10296 6.20005V19.2584C3.10296 19.9601 3.67432 20.5324 4.36092 20.5324H13.4777C14.1653 20.5324 14.7261 19.9591 14.7261 19.2584V6.20005H3.10205H3.10296ZM15.6171 3.36468H2.37703C1.1959 3.36468 1.1959 5.20229 2.37703 5.20229H15.6171C16.7983 5.20229 16.7983 3.36468 15.6171 3.36468Z" fill="#EB5757"/>
<path d="M8.42578 8.82769C8.42578 8.16616 9.41293 8.16616 9.41293 8.82769V17.4903C9.41293 18.1421 8.42578 18.1421 8.42578 17.4903V8.82769Z" fill="#EB5757"/>
<path d="M11.127 8.82769C11.127 8.16616 12.1045 8.16616 12.1045 8.82769V17.4903C12.1045 18.1421 11.127 18.1421 11.127 17.4903V8.82769Z" fill="#EB5757"/>
<path d="M5.72461 8.82769C5.72461 8.16616 6.71176 8.16616 6.71176 8.82769V17.4903C6.71176 18.1421 5.72461 18.1421 5.72461 17.4903V8.82769Z" fill="#EB5757"/>
</svg>
