<svg width="24" height="24" viewBox="0 0 24 24" fill="none" xmlns="http://www.w3.org/2000/svg">
<path d="M3.51367 10.6088V20.1936C3.51367 20.7458 3.96139 21.1936 4.51367 21.1936H8.9992C9.55149 21.1936 9.9992 20.7458 9.9992 20.1936V15.2941C9.9992 14.7418 10.4469 14.2941 10.9992 14.2941H13.0354C13.5877 14.2941 14.0354 14.7418 14.0354 15.2941V20.1936C14.0354 20.7458 14.4831 21.1936 15.0354 21.1936H19.4864C20.0387 21.1936 20.4864 20.7458 20.4864 20.1936V10.6137C20.4864 10.3221 20.3592 10.0451 20.138 9.85509L12.5879 3.37056C12.2109 3.04672 11.6532 3.04896 11.2788 3.37583L3.85604 9.85549C3.6385 10.0454 3.51367 10.3201 3.51367 10.6088Z" stroke="black" stroke-linejoin="round"/>
</svg>
