<svg width="24" height="24" viewBox="0 0 24 24" fill="none" xmlns="http://www.w3.org/2000/svg">
<path fill-rule="evenodd" clip-rule="evenodd" d="M12.1484 19.875C16.4977 19.875 20.0234 16.3492 20.0234 12C20.0234 7.65076 16.4977 4.125 12.1484 4.125C7.7992 4.125 4.27344 7.65076 4.27344 12C4.27344 16.3492 7.7992 19.875 12.1484 19.875ZM12.1484 21C17.119 21 21.1484 16.9706 21.1484 12C21.1484 7.02944 17.119 3 12.1484 3C7.17788 3 3.14844 7.02944 3.14844 12C3.14844 16.9706 7.17788 21 12.1484 21Z" fill="#42A71E"/>
<path fill-rule="evenodd" clip-rule="evenodd" d="M8.8536 11.8711C9.04886 11.6759 9.36544 11.6759 9.56071 11.8711L11.3709 13.6813C11.5661 13.8766 11.5661 14.1932 11.3709 14.3884C11.1756 14.5837 10.859 14.5837 10.6638 14.3884L8.8536 12.5782C8.65834 12.383 8.65834 12.0664 8.8536 11.8711Z" fill="#42A71E"/>
<path fill-rule="evenodd" clip-rule="evenodd" d="M10.6636 14.3887C10.4683 14.1934 10.4683 13.8769 10.6636 13.6816L14.7362 9.60898C14.9315 9.41371 15.2481 9.41371 15.4433 9.60898C15.6386 9.80424 15.6386 10.1208 15.4433 10.3161L11.3707 14.3887C11.1755 14.584 10.8589 14.584 10.6636 14.3887Z" fill="#42A71E"/>
</svg>
