<svg width="27" height="27" viewBox="0 0 27 27" fill="none" xmlns="http://www.w3.org/2000/svg">
<path fill-rule="evenodd" clip-rule="evenodd" d="M13.6149 0.168543C13.6259 0.169047 13.6369 0.169659 13.6478 0.170374C14.3566 0.216851 14.9683 0.707195 15.1951 1.41116L17.6254 8.94888H25.1514C25.906 8.94888 26.5748 9.45105 26.8124 10.1992C27.0501 10.9447 26.8051 11.7672 26.2024 12.2412L20.1512 16.9863L22.3365 24.5424C22.5521 25.288 22.2899 26.0951 21.6873 26.5537C21.0846 27.0098 20.2688 27.0175 19.6587 26.5716L13.5341 22.0956L7.40939 26.5716C6.79934 27.02 5.98354 27.0123 5.38087 26.5537C4.77572 26.0951 4.51604 25.288 4.73163 24.5424L6.91693 16.9863L0.865756 12.2412C0.263083 11.7698 0.0180929 10.9473 0.255734 10.1992C0.495814 9.45362 1.16463 8.94888 1.91673 8.94888H9.44777L11.8781 1.41116C12.1244 0.64829 12.8161 0.146917 13.5822 0.16735M1.6139 10.6335C1.55134 10.8344 1.62879 11.0277 1.74435 11.1181L1.74565 11.1191L8.02302 16.0416C8.34394 16.2933 8.47989 16.7146 8.36658 17.1064L6.10143 24.9385C6.04436 25.136 6.12269 25.3267 6.24213 25.4173L6.24439 25.419C6.29902 25.4606 6.35473 25.4765 6.40521 25.4769C6.45558 25.4774 6.51065 25.4625 6.56491 25.4227L6.56802 25.4204L12.944 20.7607C13.2955 20.5038 13.7727 20.5038 14.1241 20.7607L20.5001 25.4204C20.6001 25.4935 20.7235 25.4938 20.8253 25.4178C20.9461 25.3247 21.0227 25.1322 20.9667 24.9385L18.7016 17.1064C18.5882 16.7146 18.7242 16.2933 19.0451 16.0416L25.3209 11.1204C25.4418 11.0252 25.5163 10.8283 25.4538 10.6322L25.4534 10.6309C25.3943 10.4447 25.2537 10.3748 25.1514 10.3748H17.3152C16.8811 10.3748 16.4966 10.0948 16.3634 9.68167L13.838 1.84872C13.7799 1.6686 13.6452 1.59737 13.5494 1.59296C13.4465 1.58822 13.2979 1.65462 13.235 1.84935L10.7097 9.68167C10.5765 10.0948 10.192 10.3748 9.75796 10.3748H1.91673C1.82137 10.3748 1.67634 10.4432 1.6139 10.6335Z" fill="#42A71E"/>
</svg>
