<svg width="30" height="40" viewBox="0 0 30 40" fill="none" xmlns="http://www.w3.org/2000/svg">
<path d="M28.8778 10.4383C28.7776 10.4532 28.6774 10.4697 28.5661 10.4697C28.493 10.4697 28.4294 10.4548 28.361 10.4482V36.609C28.361 37.5429 27.6311 38.3045 26.7326 38.3045H3.25681C2.35837 38.3045 1.62847 37.5429 1.62847 36.609V3.40475C1.62847 2.46927 2.35837 1.70927 3.25681 1.70927H21.5916C21.0604 1.32514 20.7853 0.676091 20.7663 0.0137939H3.25669C1.46136 0.0137939 0 1.5354 0 3.40475V36.609C0 38.4784 1.46136 40 3.25669 40H26.7309C28.5278 40 29.9876 38.4784 29.9876 36.609V11.1005C29.5073 11.0128 29.1369 10.771 28.8776 10.4382L28.8778 10.4383Z" fill="black"/>
<path d="M29.172 11.9754C29.1688 11.9754 29.1624 11.9771 29.1545 11.9754H20.8711C20.4131 11.9754 20.0426 11.5963 20.0426 11.1277L20.041 0.848831C20.041 0.49119 20.2605 0.171614 20.5896 0.0507682C20.9172 -0.0717557 21.2861 0.0325549 21.5088 0.309062L29.7095 10.4819C29.8892 10.6376 30.0005 10.8694 30.0005 11.1277C30.0021 11.5946 29.6316 11.9754 29.172 11.9754L29.172 11.9754ZM21.6999 10.2799H27.4008L21.6999 3.20979V10.2799Z" fill="black"/>
<path d="M22.5037 26.4752H7.48911C5.69378 26.4752 4.23242 24.9536 4.23242 23.0843V18.5277C4.23242 16.6583 5.69378 15.1367 7.48911 15.1367H22.5037C24.299 15.1367 25.7604 16.6583 25.7604 18.5277V23.0843C25.7604 24.9553 24.3006 26.4752 22.5037 26.4752ZM7.48911 16.8322C6.59067 16.8322 5.86077 17.5922 5.86077 18.5277V23.0843C5.86077 24.0198 6.59067 24.7798 7.48911 24.7798H22.5037C23.4021 24.7798 24.132 24.0198 24.132 23.0843V18.5277C24.132 17.5922 23.4021 16.8322 22.5037 16.8322H7.48911Z" fill="black"/>
<path d="M10.039 18.0275C10.4159 18.0275 10.7371 18.0739 11.0075 18.1666C11.2762 18.2593 11.4988 18.3868 11.6737 18.5491C11.8487 18.7113 11.9775 18.9034 12.0617 19.1253C12.1444 19.3472 12.1858 19.5856 12.1858 19.8422C12.1858 20.1187 12.1428 20.3737 12.0586 20.6055C11.9727 20.8373 11.8423 21.036 11.6674 21.1999C11.4924 21.3638 11.2682 21.4946 10.9995 21.5857C10.7308 21.6784 10.4096 21.7248 10.0406 21.7248H9.39501V23.5825H8.15625V18.0243L10.039 18.026L10.039 18.0275ZM10.039 20.7545C10.3618 20.7545 10.594 20.6734 10.7355 20.5145C10.877 20.3538 10.9486 20.1303 10.9486 19.8422C10.9486 19.7147 10.9311 19.5988 10.8945 19.4945C10.858 19.3902 10.8023 19.3008 10.7276 19.2263C10.6528 19.1518 10.559 19.0938 10.4445 19.0524C10.33 19.0111 10.1964 18.9912 10.0406 18.9912H9.39501V20.7529L10.039 20.7545Z" fill="black"/>
<path d="M17.666 20.8043C17.666 21.2066 17.5992 21.5758 17.4656 21.9169C17.3336 22.2563 17.1444 22.5494 16.9043 22.7978C16.6626 23.0461 16.3716 23.2382 16.0313 23.3773C15.6894 23.5164 15.3125 23.5842 14.8975 23.5842H12.8223V18.026H14.8975C15.3125 18.026 15.691 18.0956 16.0313 18.2363C16.3732 18.3754 16.6626 18.5691 16.9043 18.8158C17.146 19.0625 17.3336 19.3556 17.4656 19.695C17.5992 20.0361 17.666 20.4053 17.666 20.8044V20.8043ZM16.397 20.8043C16.397 20.5294 16.362 20.281 16.2936 20.0592C16.2253 19.8373 16.1267 19.6502 15.9995 19.4962C15.8722 19.3423 15.7132 19.2247 15.5288 19.1419C15.3443 19.0591 15.1328 19.0177 14.8959 19.0177H14.0674V22.5925H14.8959C15.1328 22.5925 15.3443 22.5511 15.5288 22.4683C15.7148 22.3855 15.8723 22.2679 15.9995 22.1123C16.1267 21.9583 16.2253 21.7712 16.2936 21.551C16.3636 21.3308 16.397 21.0808 16.397 20.8043V20.8043Z" fill="black"/>
<path d="M19.6396 19.0192V20.4266H21.4636V21.4217H19.6396V23.5858H18.3945V18.0276H21.8309V19.0194L19.6396 19.0192Z" fill="black"/>
</svg>
