<svg width="18" height="18" viewBox="0 0 18 18" fill="none" xmlns="http://www.w3.org/2000/svg">
<path d="M1.61699 8.99993C1.6409 8.99993 1.6641 8.99782 1.68731 8.99641V16.1718C1.68731 16.209 1.70207 16.2449 1.72879 16.2709C1.75481 16.2976 1.79067 16.3124 1.82793 16.3124H16.1718C16.209 16.3124 16.2449 16.2976 16.2709 16.2709C16.2976 16.2449 16.3124 16.209 16.3124 16.1718V8.99641C16.3356 8.99782 16.3588 8.99993 16.3827 8.99993C17.0619 8.97954 17.5963 8.41353 17.578 7.73431H17.5773C17.5773 7.71674 17.5745 7.69916 17.5682 7.68298L16.0311 3.77014V1.82812C16.0311 1.79086 16.0164 1.755 15.9896 1.72898C15.9636 1.70227 15.9278 1.6875 15.8905 1.6875H2.10935C2.032 1.6875 1.96872 1.75078 1.96872 1.82812V3.77014L0.431686 7.68298C0.425358 7.69916 0.422545 7.71673 0.422545 7.73431H0.421842C0.403561 8.41353 0.937938 8.97955 1.61715 8.99993H1.61699ZM3.3748 16.0311H1.96855V13.2186H3.3748V16.0311ZM7.59364 16.0311H3.65614V10.5467C3.65614 10.4693 3.71942 10.406 3.79677 10.406H7.45293C7.49019 10.406 7.52605 10.4208 7.55207 10.4475C7.57879 10.4735 7.59355 10.5094 7.59355 10.5467L7.59364 16.0311ZM16.0311 16.0311H7.87498V13.2186H10.125V14.4842C10.125 14.5215 10.1397 14.5573 10.1665 14.5833C10.1925 14.6101 10.2283 14.6248 10.2656 14.6248H14.2031C14.2404 14.6248 14.2762 14.6101 14.3022 14.5833C14.329 14.5573 14.3437 14.5215 14.3437 14.4842V13.2186H16.0312L16.0311 16.0311ZM10.4061 14.3436V10.6874H14.0623V14.3436H10.4061ZM16.0311 12.9373H14.3436V10.5468C14.3436 10.5095 14.3289 10.4736 14.3022 10.4476C14.2761 10.4209 14.2403 10.4061 14.203 10.4061H10.2655C10.1882 10.4061 10.1249 10.4694 10.1249 10.5468V12.9373H7.87489V10.5468C7.87489 10.314 7.68575 10.1249 7.45301 10.1249H3.79685C3.56411 10.1249 3.37496 10.314 3.37496 10.5468V12.9373H1.96871V8.9435C2.27527 8.84014 2.52841 8.61865 2.67183 8.32826C2.86308 8.73747 3.27442 8.99975 3.72652 8.99975C4.17863 8.99975 4.58996 8.73749 4.78121 8.32826C4.97246 8.73747 5.3838 8.99975 5.83591 8.99975C6.28801 8.99975 6.69935 8.73749 6.8906 8.32826C7.08185 8.73747 7.49319 8.99975 7.94529 8.99975C8.3974 8.99975 8.80873 8.73749 8.99998 8.32826C9.19123 8.73747 9.60257 8.99975 10.0547 8.99975C10.5068 8.99975 10.9181 8.73749 11.1094 8.32826C11.3006 8.73747 11.712 8.99975 12.1641 8.99975C12.6162 8.99975 13.0275 8.73749 13.2188 8.32826C13.41 8.73747 13.8213 8.99975 14.2734 8.99975C14.7255 8.99975 15.1369 8.73749 15.3281 8.32826C15.4716 8.61865 15.7247 8.84014 16.0313 8.9435L16.0311 12.9373ZM7.04662 7.5935L7.43193 3.93734H8.85928V7.5935H7.04662ZM8.84878 7.87475C8.81644 8.35006 8.42128 8.7185 7.94527 8.7185C7.46926 8.7185 7.07411 8.35006 7.04176 7.87475H8.84878ZM6.76402 7.5935H4.95484L5.72546 3.93734H7.14929L6.76402 7.5935ZM6.73941 7.87475C6.6916 8.34234 6.30558 8.70304 5.8359 8.7185C5.36621 8.70303 4.9802 8.34234 4.93239 7.87475H6.73941ZM4.66725 7.5935H2.86365L4.0196 3.93734H5.4378L4.66725 7.5935ZM4.62999 7.87475C4.58218 8.34234 4.19615 8.70304 3.72648 8.7185C3.25679 8.70303 2.87078 8.34234 2.82297 7.87475H4.62999ZM13.3326 7.5935L12.562 3.93734H13.9802L15.1362 7.5935H13.3326ZM15.1769 7.87475C15.1446 8.35006 14.7494 8.7185 14.2734 8.7185C13.7974 8.7185 13.4022 8.35006 13.3699 7.87475H15.1769ZM13.045 7.5935H11.2358L10.8505 3.93734H12.2743L13.045 7.5935ZM13.0675 7.87475C13.0351 8.35006 12.64 8.7185 12.164 8.7185C11.688 8.7185 11.2928 8.35006 11.2605 7.87475H13.0675ZM10.9532 7.5935H9.14061V3.93734H10.568L10.9532 7.5935ZM10.9581 7.87475C10.9258 8.35006 10.5306 8.7185 10.0546 8.7185C9.57861 8.7185 9.18346 8.35006 9.15111 7.87475H10.9581ZM16.3828 8.7185C15.9131 8.70303 15.5271 8.34234 15.4793 7.87475H17.2863C17.2385 8.34234 16.8525 8.70304 16.3828 8.7185ZM17.2315 7.5935H15.4315L14.2755 3.93734H15.7943L17.2315 7.5935ZM2.25005 1.9685H15.7501V3.656H2.25005V1.9685ZM2.20505 3.93734H3.7238L2.56786 7.5935H0.768564L2.20505 3.93734ZM2.52076 7.87484C2.47294 8.34243 2.08692 8.70313 1.61725 8.71859C1.14755 8.70312 0.761544 8.34243 0.713735 7.87484H2.52076Z" fill="black"/>
<path d="M6.75 12.5156H7.03125V13.6406H6.75V12.5156Z" fill="black"/>
</svg>
