<svg width="16" height="8" viewBox="0 0 16 8" fill="none" xmlns="http://www.w3.org/2000/svg">
<path d="M0.300417 0.281057C0.108154 0.451213 -3.19858e-07 0.682512 -3.09359e-07 0.922681C-2.98823e-07 1.16373 0.108149 1.39503 0.300417 1.56519L7.26597 7.73413C7.45824 7.90428 7.71859 8 7.99096 8C8.26333 8 8.52368 7.90429 8.71594 7.73413L15.6815 1.56519C15.8818 1.3968 15.9969 1.16285 15.9999 0.918234C16.0029 0.673641 15.8948 0.437896 15.6985 0.265085C15.5033 0.0922707 15.2369 -0.00344438 14.9605 9.47135e-05C14.6841 0.00363381 14.4208 0.105555 14.2305 0.282803L7.99093 5.81014L1.75136 0.282803C1.5591 0.112648 1.29875 0.0160455 1.02638 0.0160455C0.754003 0.0151596 0.49268 0.110895 0.300417 0.281057Z" fill="#47454B"/>
</svg>
