<svg width="32" height="32" viewBox="0 0 32 32" fill="none" xmlns="http://www.w3.org/2000/svg">
<path fill-rule="evenodd" clip-rule="evenodd" d="M9.34424 15.9896C9.34424 15.5984 9.66137 15.2812 10.0526 15.2812L21.6646 15.2812C22.0558 15.2812 22.3729 15.5984 22.3729 15.9896C22.3729 16.3808 22.0558 16.6979 21.6646 16.6979L10.0526 16.6979C9.66137 16.6979 9.34424 16.3808 9.34424 15.9896Z" fill="black"/>
<path fill-rule="evenodd" clip-rule="evenodd" d="M17.1171 20.5399C16.8405 20.2633 16.8405 19.8148 17.1171 19.5382L21.124 15.5313C21.4006 15.2546 21.8491 15.2546 22.1257 15.5313C22.4024 15.8079 22.4024 16.2564 22.1257 16.533L18.1188 20.5399C17.8422 20.8166 17.3937 20.8166 17.1171 20.5399Z" fill="black"/>
<path fill-rule="evenodd" clip-rule="evenodd" d="M17.1461 11.4618C17.4227 11.1852 17.8712 11.1852 18.1478 11.4618L22.1548 15.4687C22.4314 15.7454 22.4314 16.1939 22.1548 16.4705C21.8782 16.7471 21.4297 16.7471 21.153 16.4705L17.1461 12.4635C16.8695 12.1869 16.8695 11.7384 17.1461 11.4618Z" fill="black"/>
</svg>
