<svg width="21" height="20" viewBox="0 0 21 20" fill="none" xmlns="http://www.w3.org/2000/svg">
<path fill-rule="evenodd" clip-rule="evenodd" d="M15.1653 12.8987L20.5453 18.2787C20.7344 18.468 20.8406 18.7246 20.8405 18.9921C20.8404 19.2596 20.7341 19.5161 20.5448 19.7052C20.3556 19.8943 20.099 20.0005 19.8315 20.0004C19.564 20.0003 19.3074 19.894 19.1183 19.7047L13.7383 14.3247C12.1301 15.5704 10.1076 16.1566 8.08247 15.9641C6.05732 15.7716 4.18158 14.8148 2.83683 13.2884C1.49208 11.7619 0.779335 9.78056 0.843596 7.74729C0.907857 5.71402 1.74429 3.7816 3.18275 2.34315C4.6212 0.904695 6.55362 0.0682577 8.58689 0.00399633C10.6202 -0.0602651 12.6015 0.652477 14.128 1.99723C15.6544 3.34198 16.6112 5.21772 16.8037 7.24287C16.9962 9.26802 16.41 11.2905 15.1643 12.8987H15.1653ZM8.84034 13.9997C10.4316 13.9997 11.9578 13.3676 13.083 12.2424C14.2082 11.1172 14.8403 9.59104 14.8403 7.99974C14.8403 6.40845 14.2082 4.88232 13.083 3.7571C11.9578 2.63189 10.4316 1.99974 8.84034 1.99974C7.24904 1.99974 5.72292 2.63189 4.5977 3.7571C3.47249 4.88232 2.84034 6.40845 2.84034 7.99974C2.84034 9.59104 3.47249 11.1172 4.5977 12.2424C5.72292 13.3676 7.24904 13.9997 8.84034 13.9997Z" fill="white"/>
</svg>
