<svg width="22" height="14" viewBox="0 0 22 14" fill="none" xmlns="http://www.w3.org/2000/svg">
<path fill-rule="evenodd" clip-rule="evenodd" d="M19.8867 6.14368C19.8543 6.08727 19.8279 6.02745 19.8081 5.96525L18.8615 3.00091C18.7421 2.62706 18.4011 2.45233 18.0165 2.45233H15.8865V1.22331H18.0165C18.7857 1.22331 19.648 1.70463 19.8867 2.45233L20.7857 4.90358L21.8774 7.81318C21.941 7.98613 22 8.11179 22 8.27373V10.4265C22 11.4304 21.2041 12.2443 20.2222 12.2443H1.77778C0.795937 12.2443 0 11.4304 0 10.4265V1.87706C0 0.87311 0.795938 0.00585938 1.77778 0.00585938H14.6716C15.4309 0.00585938 15.8865 0.446812 15.8865 1.22331L15.2663 1.5591C15.2663 1.28458 14.94 1.22331 14.6716 1.22331H1.77778C1.28686 1.22331 1.20968 1.37509 1.20968 1.87706V10.4265C1.20968 10.9285 1.28686 11.0183 1.77778 11.0183H20.2222C20.7131 11.0183 20.7857 10.9285 20.7857 10.4265V8.47611C20.7857 8.34254 20.7589 8.21034 20.707 8.08729L19.8867 6.14368Z" fill="white"/>
<path fill-rule="evenodd" clip-rule="evenodd" d="M15.888 1.20459V5.05371C15.888 5.29984 15.9958 5.49816 16.2933 5.49816H20.6707V6.7591H16.2933C15.3976 6.7591 14.6741 5.78942 14.6741 5.05371V1.20459L15.888 1.20459Z" fill="white"/>
<path d="M7.1837 11.3275C7.1837 12.34 6.37964 13.1608 5.38778 13.1608C4.39592 13.1608 3.59186 12.34 3.59186 11.3275C3.59186 10.315 4.39592 9.49414 5.38778 9.49414C6.37964 9.49414 7.1837 10.315 7.1837 11.3275Z" fill="#47454B"/>
<circle cx="5.38782" cy="11.3277" r="2.1666" stroke="white"/>
<path d="M18.8573 11.3275C18.8573 12.34 18.0532 13.1608 17.0614 13.1608C16.0695 13.1608 15.2655 12.34 15.2655 11.3275C15.2655 10.315 16.0695 9.49414 17.0614 9.49414C18.0532 9.49414 18.8573 10.315 18.8573 11.3275Z" fill="#47454B"/>
<circle cx="17.0613" cy="11.3277" r="2.1666" stroke="white"/>
</svg>
