<svg width="24" height="32" viewBox="0 0 24 32" fill="none" xmlns="http://www.w3.org/2000/svg">
<path d="M23.1023 8.35133C23.0222 8.36325 22.942 8.3765 22.853 8.3765C22.7945 8.3765 22.7436 8.36458 22.6889 8.35928V29.288C22.6889 30.0351 22.1049 30.6444 21.3862 30.6444H2.60546C1.8867 30.6444 1.30278 30.0351 1.30278 29.288V2.7245C1.30278 1.97611 1.8867 1.36811 2.60546 1.36811H17.2733C16.8484 1.0608 16.6283 0.541558 16.6131 0.0117188H2.60536C1.16909 0.0117188 0 1.22901 0 2.7245V29.288C0 30.7835 1.16909 32.0008 2.60536 32.0008H21.3848C22.8223 32.0008 23.9902 30.7835 23.9902 29.288V8.88115C23.606 8.81095 23.3096 8.61755 23.1022 8.35131L23.1023 8.35133Z" fill="black"/>
<path d="M23.3369 9.58037C23.3344 9.58037 23.3293 9.5817 23.3229 9.58037H16.6962C16.3298 9.58037 16.0334 9.27704 16.0334 8.90218L16.0321 0.679067C16.0321 0.392954 16.2077 0.137291 16.471 0.0406147C16.7331 -0.0574048 17.0282 0.026044 17.2063 0.24725L23.7669 8.38559C23.9107 8.5101 23.9997 8.69554 23.9997 8.90217C24.001 9.27572 23.7046 9.58036 23.3369 9.58036L23.3369 9.58037ZM17.3592 8.22398H21.9199L17.3592 2.56784V8.22398Z" fill="black"/>
<path d="M18.003 21.1802H5.99129C4.55502 21.1802 3.38593 19.9629 3.38593 18.4674V14.8222C3.38593 13.3267 4.55502 12.1094 5.99129 12.1094H18.003C19.4392 12.1094 20.6083 13.3267 20.6083 14.8222V18.4674C20.6083 19.9643 19.4405 21.1802 18.003 21.1802ZM5.99129 13.4658C5.27253 13.4658 4.68861 14.0738 4.68861 14.8222V18.4674C4.68861 19.2158 5.27253 19.8238 5.99129 19.8238H18.003C18.7217 19.8238 19.3057 19.2158 19.3057 18.4674V14.8222C19.3057 14.0738 18.7217 13.4658 18.003 13.4658H5.99129Z" fill="black"/>
<path d="M8.03205 14.4225C8.33355 14.4225 8.59051 14.4596 8.80679 14.5338C9.02178 14.6079 9.19987 14.7099 9.33981 14.8397C9.47975 14.9695 9.58279 15.1232 9.65021 15.3007C9.71636 15.4782 9.74944 15.6689 9.74944 15.8742C9.74944 16.0955 9.71509 16.2994 9.64767 16.4849C9.57897 16.6703 9.47466 16.8293 9.33472 16.9604C9.19478 17.0915 9.01541 17.1962 8.80043 17.269C8.58543 17.3432 8.32847 17.3803 8.03331 17.3803H7.51683V18.8665H6.52582V14.4199L8.03204 14.4212L8.03205 14.4225ZM8.03205 16.6041C8.2903 16.6041 8.47604 16.5392 8.58924 16.412C8.70246 16.2835 8.75971 16.1047 8.75971 15.8743C8.75971 15.7723 8.74571 15.6795 8.71646 15.5961C8.6872 15.5126 8.64267 15.4411 8.58288 15.3815C8.52309 15.3219 8.44803 15.2755 8.35644 15.2424C8.26484 15.2093 8.15798 15.1934 8.03331 15.1934H7.51683V16.6028L8.03205 16.6041Z" fill="black"/>
<path d="M14.1329 16.6435C14.1329 16.9654 14.0794 17.2607 13.9726 17.5336C13.867 17.8052 13.7156 18.0396 13.5235 18.2383C13.3301 18.437 13.0973 18.5907 12.8251 18.7019C12.5516 18.8132 12.2501 18.8675 11.918 18.8675H10.2579V14.4209H11.918C12.2501 14.4209 12.5528 14.4765 12.8251 14.5891C13.0986 14.7004 13.3301 14.8554 13.5235 15.0527C13.7168 15.2501 13.867 15.4845 13.9726 15.7561C14.0794 16.029 14.1329 16.3244 14.1329 16.6436V16.6435ZM13.1177 16.6435C13.1177 16.4236 13.0897 16.2249 13.035 16.0474C12.9803 15.8699 12.9014 15.7202 12.7996 15.5971C12.6979 15.4739 12.5707 15.3798 12.4231 15.3136C12.2755 15.2474 12.1063 15.2143 11.9168 15.2143H11.254V18.0741H11.9168C12.1063 18.0741 12.2755 18.041 12.4231 17.9747C12.5719 17.9085 12.6979 17.8144 12.7996 17.6899C12.9014 17.5667 12.9803 17.4171 13.035 17.2409C13.091 17.0647 13.1177 16.8647 13.1177 16.6435V16.6435Z" fill="black"/>
<path d="M15.7125 15.2152V16.3411H17.1717V17.1372H15.7125V18.8685H14.7164V14.4219H17.4655V15.2153L15.7125 15.2152Z" fill="black"/>
</svg>
