<svg width="151" height="182" viewBox="0 0 151 182" fill="none" xmlns="http://www.w3.org/2000/svg">
<g id="Garment/beanies - F">
<g id="Calque_1">
<circle id="Oval" cx="75.3801" cy="21.76" r="20.56" stroke="black" stroke-width="1.42" stroke-linecap="round" stroke-linejoin="round"/>
<path id="Path" d="M62.08 37.42C62.08 37.42 4.90004 57.67 7.64004 136.32" stroke="black" stroke-width="1.42" stroke-linecap="round" stroke-linejoin="round"/>
<path id="Path_2" d="M75.38 136.32H6.63004C6.63004 136.32 1.40004 137.21 0.94004 141.32C0.48004 145.43 0.94004 172.52 0.94004 172.52C0.94004 172.52 2.20004 181.02 11.32 181.09C20.44 181.16 75.37 181.09 75.37 181.09" stroke="black" stroke-width="1.42" stroke-linecap="round" stroke-linejoin="round"/>
<path id="Path_3" d="M88.6801 37.42C88.6801 37.42 145.85 57.66 143.12 136.32" stroke="black" stroke-width="1.42" stroke-linecap="round" stroke-linejoin="round"/>
<path id="Path_4" d="M75.38 136.32H144.13C144.13 136.32 149.36 137.21 149.82 141.32C150.28 145.43 149.82 172.52 149.82 172.52C149.82 172.52 148.56 181.02 139.44 181.09C130.32 181.16 75.39 181.09 75.39 181.09" stroke="black" stroke-width="1.42" stroke-linecap="round" stroke-linejoin="round"/>
<rect id="Rectangle" x="57.34" y="148.94" width="36.11" height="19.59" rx="3.94" stroke="black" stroke-width="1.42" stroke-linecap="round" stroke-linejoin="round"/>
</g>
</g>
</svg>
