<svg width="178" height="170" viewBox="0 0 178 170" fill="none" xmlns="http://www.w3.org/2000/svg">
<g id="Garment/blouses - F">
<g id="Calque_1">
<path id="Path" d="M85.89 53.66L58.3 2.71C58.3 2.71 56.71 1 52.57 1H42.46C42.46 1 39.51 2 38.94 6.25C38.37 10.5 43.64 31.25 29.83 47.18L23.83 53.09C22.1382 54.7222 20.9955 56.8399 20.56 59.15L1.20998 150.53C1.20998 150.53 -0.21002 155.77 3.82998 159.43C7.86998 163.09 30.62 168.8 88.83 168.8" stroke="black" stroke-width="1.42"/>
<path id="Path_2" d="M91.7501 53.66L119.34 2.72001C119.34 2.72001 120.94 1.04001 125.08 1.04001H135.19C135.19 1.04001 138.14 2.04001 138.71 6.29001C139.28 10.54 134.01 31.29 147.82 47.22L153.82 53.13C155.512 54.7622 156.655 56.8799 157.09 59.19L176.46 150.52C176.46 150.52 177.88 155.76 173.84 159.42C169.8 163.08 147.05 168.79 88.8401 168.79" stroke="black" stroke-width="1.42"/>
<path id="Path_3" d="M79.47 41.89C79.47 41.89 85.47 48.83 98.17 41.89" stroke="black" stroke-width="1.42"/>
<path id="Path_4" fill-rule="evenodd" clip-rule="evenodd" d="M91.7499 53.66V91.25H85.8899V53.66C85.8899 53.66 88.5399 57.71 91.7499 53.66Z" stroke="black" stroke-width="1.42"/>
</g>
</g>
</svg>
