<svg width="145" height="124" viewBox="0 0 145 124" fill="none" xmlns="http://www.w3.org/2000/svg">
<g id="Garment/caps - F">
<g id="Calque_1">
<path id="Path" d="M72.43 119.54C72.43 119.54 30.7 120.14 18.08 122.35C18.08 122.35 1.35001 122.05 1.20001 110.51L7.09001 95" stroke="black" stroke-width="1.42" stroke-linecap="round" stroke-linejoin="round"/>
<path id="Path_2" d="M72.64 119.54C72.64 119.54 114.37 120.14 126.99 122.35C126.99 122.35 143.72 122.05 143.87 110.51L138 95" stroke="black" stroke-width="1.42" stroke-linecap="round" stroke-linejoin="round"/>
<path id="Path_3" d="M108.26 88.08C108.26 88.08 107.32 46.82 104.53 35.35C104.53 35.35 100.6 10.82 72.64 4.66004C72.64 4.66004 104.07 2.43004 126.87 31.05C126.87 31.05 136.63 42.61 137.93 64V95C108.53 84.47 72.38 86 72.38 86C72.38 86 36.44 84.43 7.04004 95V64C8.44004 42.62 18.2 31.06 18.2 31.06C41 2.44004 72.43 4.66004 72.43 4.66004C44.43 10.82 40.54 35.35 40.54 35.35C37.75 46.83 36.81 88.08 36.81 88.08" stroke="black" stroke-width="1.42" stroke-linecap="round" stroke-linejoin="round"/>
<path id="Path_4" d="M63.29 5.17006C63.29 5.17006 71.98 -4.63994 81.79 5.17006" stroke="black" stroke-width="1.42" stroke-linecap="round" stroke-linejoin="round"/>
</g>
</g>
</svg>
