<svg width="228" height="247" viewBox="0 0 228 247" fill="none" xmlns="http://www.w3.org/2000/svg">
<g id="Garment/Coats short - F">
<g id="Calque_1">
<path id="Path" d="M36.12 182.84C36.12 182.84 40.32 185.49 30.67 197.38C30.67 197.38 9.32996 191.8 0.959961 183.38C0.959961 183.38 1.47996 174.38 8.24996 170.62" stroke="black" stroke-width="1.42" stroke-linecap="round" stroke-linejoin="round"/>
<path id="Path_2" d="M49.33 154.62L48.59 229.5C48.59 229.5 48.66 236.07 53.7 237.13C53.7 237.13 67.3 242.95 100.56 245.39C100.56 245.39 104.26 245.63 104.3 240.96C104.34 236.29 103.83 179.32 103.83 179.32C103.83 179.32 102.37 68.69 95.19 48.76C88.01 28.83 89.68 21.69 89.68 21.69C89.68 21.69 90.95 2.55001 114 1.20001C114 1.20001 89.7 0.200014 79.85 17.55C79.85 17.55 74.41 27.24 71.1 29.39C67.79 31.54 53.68 33.88 43.75 62L8.25 170.6L36.12 182.86L49.32 154.63L47.54 118.26" stroke="black" stroke-width="1.42" stroke-linecap="round" stroke-linejoin="round"/>
<path id="Path_3" fill-rule="evenodd" clip-rule="evenodd" d="M80.22 202.32L59.5 199.59V202.67L80.22 205.4V202.32V202.32Z" stroke="black" stroke-width="1.42" stroke-linecap="round" stroke-linejoin="round"/>
<path id="Path_4" d="M73.83 26.65C73.83 26.65 69.18 40.04 69.33 49.65L81.15 48.47L62.46 61.91C62.46 61.91 102.15 174.23 103.95 203.75" stroke="black" stroke-width="1.42" stroke-linecap="round" stroke-linejoin="round"/>
<path id="Path_5" d="M191.84 182.84C191.84 182.84 187.64 185.49 197.29 197.38C197.29 197.38 218.63 191.8 227 183.38C227 183.38 226.48 174.38 219.71 170.62" stroke="black" stroke-width="1.42" stroke-linecap="round" stroke-linejoin="round"/>
<path id="Path_6" d="M178.63 154.62L179.37 229.5C179.37 229.5 179.3 236.07 174.26 237.13C174.26 237.13 160.66 242.95 127.4 245.39C127.4 245.39 123.7 245.63 123.66 240.96C123.62 236.29 124.13 179.32 124.13 179.32C124.13 179.32 125.59 68.69 132.77 48.76C139.95 28.83 138.28 21.69 138.28 21.69C138.28 21.69 137 2.55001 114 1.20001C114 1.20001 138.3 0.200014 148.15 17.55C148.15 17.55 153.59 27.24 156.9 29.39C160.21 31.54 174.29 33.88 184.21 62L219.71 170.6L191.84 182.86L178.64 154.63L180.42 118.26" stroke="black" stroke-width="1.42" stroke-linecap="round" stroke-linejoin="round"/>
<path id="Path_7" fill-rule="evenodd" clip-rule="evenodd" d="M147.75 202.32L168.47 199.59V202.67L147.75 205.4V202.32V202.32Z" stroke="black" stroke-width="1.42" stroke-linecap="round" stroke-linejoin="round"/>
<path id="Path_8" d="M154.13 26.65C154.13 26.65 158.78 40.04 158.63 49.65L146.81 48.47L165.5 61.92C165.5 61.92 125.82 174.23 124 203.75" stroke="black" stroke-width="1.42" stroke-linecap="round" stroke-linejoin="round"/>
<path id="Path_9" d="M104.25 229.52H123.71" stroke="black" stroke-width="1.42" stroke-linecap="round" stroke-linejoin="round"/>
</g>
</g>
</svg>
