<svg width="226" height="355" viewBox="0 0 226 355" fill="none" xmlns="http://www.w3.org/2000/svg">
<g id="Garment/Coats long - F">
<g id="Calque_1">
<path id="Path" d="M36.38 180.83C36.38 180.83 40.53 183.45 30.99 195.21C30.99 195.21 9.87999 189.69 1.60999 181.32C1.60999 181.32 2.11999 172.4 8.81999 168.7" stroke="black" stroke-width="1.42" stroke-linecap="round" stroke-linejoin="round"/>
<path id="Path_2" d="M49.4399 152.91L48.7099 338C48.7099 338 48.7799 344.5 53.7599 345.54C53.7599 345.54 67.2099 351.3 100.11 353.71C100.11 353.71 103.77 353.94 103.81 349.33C103.85 344.72 103.34 177.33 103.34 177.33C103.34 177.33 101.9 67.9201 94.7999 48.2101C87.6999 28.5001 89.3499 21.4301 89.3499 21.4301C89.3499 21.4301 90.6099 2.50005 113.35 1.16005C113.35 1.16005 89.3499 0.160055 79.5799 17.3301C79.5799 17.3301 74.1999 26.9101 70.9199 29.0401C67.6399 31.1701 53.6999 33.4801 43.9199 61.2701L8.80994 168.7L36.3799 180.83L49.4399 152.91L47.6799 116.91" stroke="black" stroke-width="1.42" stroke-linecap="round" stroke-linejoin="round"/>
<path id="Path_3" fill-rule="evenodd" clip-rule="evenodd" d="M79.99 200.1L59.5 197.4V200.44L79.99 203.14V200.1V200.1Z" stroke="black" stroke-width="1.42" stroke-linecap="round" stroke-linejoin="round"/>
<path id="Path_4" d="M73.6799 26.3401C73.6799 26.3401 69.0799 39.5801 69.2299 49.0801L80.9199 47.9101L62.4199 61.2101C62.4199 61.2101 101.68 172.31 103.42 201.51" stroke="black" stroke-width="1.42" stroke-linecap="round" stroke-linejoin="round"/>
<path id="Path_5" d="M190.4 180.83C190.4 180.83 186.25 183.45 195.79 195.21C195.79 195.21 216.9 189.69 225.17 181.32C225.17 181.32 224.66 172.4 217.96 168.7" stroke="black" stroke-width="1.42" stroke-linecap="round" stroke-linejoin="round"/>
<path id="Path_6" d="M177.34 152.91L178.07 338C178.07 338 178 344.5 173.02 345.54C173.02 345.54 159.57 351.3 126.67 353.71C126.67 353.71 123.01 353.94 122.97 349.33C122.93 344.72 123.44 177.33 123.44 177.33C123.44 177.33 124.88 67.9201 132 48.2101C139.12 28.5001 137.45 21.4301 137.45 21.4301C137.45 21.4301 136.19 2.50005 113.45 1.16005C113.45 1.16005 137.45 0.160055 147.22 17.3301C147.22 17.3301 152.6 26.9101 155.88 29.0401C159.16 31.1701 173.1 33.4801 182.88 61.2701L218 168.7L190.4 180.83L177.34 152.91L179.1 116.91" stroke="black" stroke-width="1.42" stroke-linecap="round" stroke-linejoin="round"/>
<path id="Path_7" fill-rule="evenodd" clip-rule="evenodd" d="M146.79 200.1L167.28 197.4V200.44L146.79 203.14V200.1V200.1Z" stroke="black" stroke-width="1.42" stroke-linecap="round" stroke-linejoin="round"/>
<path id="Path_8" d="M153.1 26.3401C153.1 26.3401 157.7 39.5801 157.55 49.0801L145.86 47.9101L164.35 61.2101C164.35 61.2101 125.09 172.31 123.35 201.51" stroke="black" stroke-width="1.42" stroke-linecap="round" stroke-linejoin="round"/>
<path id="Path_9" d="M103.76 338.02H123.02" stroke="black" stroke-width="1.42" stroke-linecap="round" stroke-linejoin="round"/>
</g>
</g>
</svg>
