<svg width="220" height="358" viewBox="0 0 220 358" fill="none" xmlns="http://www.w3.org/2000/svg">
<g id="Garment/Dresses basic long dress - F">
<g id="Calque_1">
<path id="Path" d="M109.9 39.58C109.9 39.58 72.1 33 50.73 10.79C50.73 10.79 38.39 9.79002 36.22 26.89C34.05 43.99 1.16003 205.09 1.16003 205.09C1.16003 205.09 10.98 216.6 26.74 208.29L57.9 65.63C57.9 65.63 73.2 119.21 67 144.85C60.8 170.49 39.29 177.47 63.49 343.5C63.49 343.5 77.78 356.85 109.9 357.13" stroke="black" stroke-width="1.42" stroke-linecap="round" stroke-linejoin="round"/>
<path id="Path_2" d="M109.9 39.58C109.9 39.58 147.71 33 169.07 10.79C169.07 10.79 181.41 9.79002 183.58 26.89C185.75 43.99 218.64 205.09 218.64 205.09C218.64 205.09 208.82 216.6 193.06 208.29L161.91 65.63C161.91 65.63 146.61 119.21 152.86 144.85C159.11 170.49 180.52 177.46 156.32 343.5C156.32 343.5 142.03 356.85 109.91 357.13" stroke="black" stroke-width="1.42" stroke-linecap="round" stroke-linejoin="round"/>
<path id="Path_3" d="M50.73 10.79C50.73 10.79 101.05 -9.89996 169.07 10.79" stroke="black" stroke-width="1.42" stroke-linecap="round" stroke-linejoin="round"/>
<path id="Path_4" d="M46.78 11.36C46.78 11.36 64.75 37.09 109.9 44C109.9 44 144.12 42.37 174.16 11.79" stroke="black" stroke-width="1.42" stroke-linecap="round" stroke-linejoin="round"/>
<path id="Path_5" d="M1.87 201.56C1.87 201.56 9.7 212.11 27.38 205.33" stroke="black" stroke-width="1.42" stroke-linecap="round" stroke-linejoin="round"/>
<path id="Path_6" d="M218 201.44C218 201.44 210.17 211.99 192.49 205.21" stroke="black" stroke-width="1.42" stroke-linecap="round" stroke-linejoin="round"/>
<path id="Path_7" d="M62.6901 338C62.6901 338 83.0601 352 109.9 352" stroke="black" stroke-width="1.42" stroke-linecap="round" stroke-linejoin="round"/>
<path id="Path_8" d="M157.11 338C157.11 338 136.75 352 109.9 352" stroke="black" stroke-width="1.42" stroke-linecap="round" stroke-linejoin="round"/>
</g>
</g>
</svg>
