<svg width="169" height="248" viewBox="0 0 169 248" fill="none" xmlns="http://www.w3.org/2000/svg">
<g id="Garment/Dresses basic short dress - F">
<g id="Calque_1">
<path id="Path" d="M83.7999 14.26C83.7999 14.26 64.7999 16.41 59.1899 1.10999C59.1899 1.10999 18.9499 -3.99001 0.929932 38.8L32.7899 53.55L34.2499 112.46C34.2499 112.46 33.9999 126.72 30.9399 133.85C27.8799 140.98 10.3099 239 10.3099 239C10.3099 239 9.21993 247.25 17.0099 246.81C24.7999 246.37 84.2299 246.81 84.2299 246.81" stroke="black" stroke-width="1.42" stroke-linecap="round" stroke-linejoin="round"/>
<path id="Path_2" d="M84.24 121.64H33.61" stroke="black" stroke-width="1.42" stroke-linecap="round" stroke-linejoin="round"/>
<path id="Path_3" d="M59.1899 1.16003H84.2399" stroke="black" stroke-width="1.42" stroke-linecap="round" stroke-linejoin="round"/>
<path id="Path_4" d="M32.7899 53.5501V37.3401" stroke="black" stroke-width="1.42" stroke-linecap="round" stroke-linejoin="round"/>
<path id="Path_5" d="M83.7999 14.26C83.7999 14.26 103.65 16.41 109.29 1.10999C109.29 1.10999 149.53 -3.99001 167.55 38.8L135.69 53.55L134.23 112.46C134.23 112.46 134.48 126.72 137.54 133.85C140.6 140.98 158.17 239 158.17 239C158.17 239 159.26 247.25 151.47 246.81C143.68 246.37 84.2499 246.81 84.2499 246.81" stroke="black" stroke-width="1.42" stroke-linecap="round" stroke-linejoin="round"/>
<path id="Path_6" d="M84.24 121.64H134.87" stroke="black" stroke-width="1.42" stroke-linecap="round" stroke-linejoin="round"/>
<path id="Path_7" d="M109.29 1.16003H84.24" stroke="black" stroke-width="1.42" stroke-linecap="round" stroke-linejoin="round"/>
<path id="Path_8" d="M135.69 53.5501V37.3401" stroke="black" stroke-width="1.42" stroke-linecap="round" stroke-linejoin="round"/>
<path id="Path_9" d="M2.65991 35.15L32.7899 48.64" stroke="black" stroke-width="1.42" stroke-linecap="round" stroke-linejoin="round"/>
<path id="Path_10" d="M165.9 35.15L135.78 48.64" stroke="black" stroke-width="1.42" stroke-linecap="round" stroke-linejoin="round"/>
<path id="Path_11" d="M55.5699 1.16004C55.5699 1.16004 56.2199 18.65 84.2399 18.65C112.26 18.65 114.24 0.920044 114.24 0.920044" stroke="black" stroke-width="1.42" stroke-linecap="round" stroke-linejoin="round"/>
</g>
</g>
</svg>
