<svg width="88" height="133" viewBox="0 0 88 133" fill="none" xmlns="http://www.w3.org/2000/svg">
<g id="Garment/Glove - L - F">
<g id="Calque_1">
<path id="Path" fill-rule="evenodd" clip-rule="evenodd" d="M17 131.36L55.32 129.95C55.32 129.95 54.22 112.95 56.58 110.79C58.94 108.63 70.25 97.59 72 83C72 83 71.69 81.27 74.83 78.29C77.97 75.31 85.83 59.29 85.83 59.29C85.83 59.29 88.36 50.67 82.06 50.02C78.4734 49.5862 74.9865 51.3911 73.27 54.57L65.57 66.75C65.57 66.75 60.04 73.85 60.23 66.75C60.23 66.75 61.48 56.6 63.84 36.82C63.84 36.82 65.46 14.01 62.74 10.12C60.02 6.23 55.67 8.12 54.57 13.89C53.47 19.66 48.57 43.89 48.57 43.89C48.57 43.89 47.67 9.77 44.8 4.94C44.8 4.94 43.24 1.49 40.25 1.17C35.33 0.649997 35.25 10.17 35.25 10.17C35.25 10.17 32.89 35.17 33.84 47.23C33.84 47.23 28.5 11.11 21.59 9.54C14.68 7.97 15.59 19.12 15.59 19.12C15.59 19.12 16.54 40.43 20 56C20 56 13.88 28.83 6.33999 28.52C-1.20001 28.21 1.46999 40.3 1.46999 40.3C1.46999 40.3 9.35999 58.3 12.93 89.46C16.46 120.19 17 131.36 17 131.36Z" stroke="black" stroke-width="1.42" stroke-linecap="round" stroke-linejoin="round"/>
<path id="Path_2" d="M16.15 120.28L55.11 118.96" stroke="black" stroke-width="1.42" stroke-linecap="round" stroke-linejoin="round"/>
</g>
</g>
</svg>
