<svg width="131" height="182" viewBox="0 0 131 182" fill="none" xmlns="http://www.w3.org/2000/svg">
<g id="Garment/hoods - F">
<g id="Calque_1">
<path id="Path" fill-rule="evenodd" clip-rule="evenodd" d="M65.25 123.64C94.25 120.69 104.52 84.25 104.52 84.25C115.22 29.3 65.25 27.7 65.25 27.7C65.25 27.7 15.71 29.3 26.41 84.24C26.41 84.24 36.28 120.69 65.25 123.64Z" stroke="black" stroke-width="1.42"/>
<path id="Path_2" fill-rule="evenodd" clip-rule="evenodd" d="M65.25 140.82C86.05 141.17 99.34 131.87 112.89 126.82C126.44 121.77 121.67 115.89 121.67 115.89C117.11 109.46 120.87 99.01 120.87 99.01L126.23 84.27C126.23 84.27 137.75 55.59 117.12 27.72C104.908 11.2397 85.7572 1.33759 65.25 0.899972C65.25 0.899972 34.45 -0.170029 13.82 27.7C-6.81 55.57 4.71 84.25 4.71 84.25L10.07 99C10.07 99 13.82 109.45 9.27 115.88C9.27 115.88 4.5 121.74 18.05 126.81C31.6 131.88 44.45 141.17 65.25 140.82Z" stroke="black" stroke-width="1.42"/>
<path id="Path_3" d="M57.53 180.95C57.53 180.95 51.93 157.41 65.06 140.83" stroke="black" stroke-width="1.42" stroke-linecap="round" stroke-linejoin="round"/>
<path id="Path_4" d="M69.42 167.14C69.42 167.14 72.97 158.36 65.06 140.82" stroke="black" stroke-width="1.42" stroke-linecap="round" stroke-linejoin="round"/>
</g>
</g>
</svg>
