<svg width="227" height="207" viewBox="0 0 227 207" fill="none" xmlns="http://www.w3.org/2000/svg">
<g id="Garment/Jacket with sleeves - F">
<g id="Calque_1">
<path id="Path" d="M113.31 1.67008H88.84C88.84 1.67008 82.84 1.06008 78.26 7.02008C73.68 12.9801 73.4 16.1401 67.44 19.6701C61.48 23.2001 29.73 34.3901 23.28 53.8501C16.83 73.3101 2.80003 108.1 1.28003 169.85L35 181.53C35 181.53 57.15 107.21 48.72 79.6601" stroke="black" stroke-width="1.42" stroke-linecap="round" stroke-linejoin="round"/>
<path id="Path_2" d="M50.3701 103.36V190.66C50.3701 190.66 51.0001 195 57.3001 196.76C63.6001 198.52 77.9601 205.37 113.3 205.43" stroke="black" stroke-width="1.42" stroke-linecap="round" stroke-linejoin="round"/>
<path id="Path_3" d="M50.3701 181.24C50.3701 181.24 83.7601 194.92 113.31 194.44" stroke="black" stroke-width="1.42" stroke-linecap="round" stroke-linejoin="round"/>
<path id="Path_4" d="M64.24 157C64.24 157 84.24 151 89.24 130.32" stroke="black" stroke-width="1.42" stroke-linecap="round" stroke-linejoin="round"/>
<path id="Path_5" d="M73.1001 14.6001C85.7483 20.2282 99.4676 23.043 113.31 22.8501" stroke="black" stroke-width="1.42" stroke-linecap="round" stroke-linejoin="round"/>
<path id="Path_6" d="M107.74 22.8601V194.4" stroke="black" stroke-width="1.42" stroke-linecap="round" stroke-linejoin="round"/>
<path id="Path_7" d="M3.81003 170.7L3.28003 179.17L26 186.81L29.76 179.72" stroke="black" stroke-width="1.42" stroke-linecap="round" stroke-linejoin="round"/>
<path id="Path_8" d="M113.31 1.67008H137.78C137.78 1.67008 143.78 1.06008 148.36 7.02008C152.94 12.9801 153.22 16.1401 159.18 19.6701C165.14 23.2001 196.88 34.3901 203.33 53.8401C209.78 73.2901 223.81 108.09 225.33 169.84L191.65 181.55C191.65 181.55 169.5 107.23 177.93 79.6801" stroke="black" stroke-width="1.42" stroke-linecap="round" stroke-linejoin="round"/>
<path id="Path_9" d="M176.24 103.36V190.66C176.24 190.66 175.66 194.99 169.31 196.77C162.96 198.55 148.65 205.38 113.31 205.44" stroke="black" stroke-width="1.42" stroke-linecap="round" stroke-linejoin="round"/>
<path id="Path_10" d="M176.24 181.24C176.24 181.24 142.85 194.92 113.3 194.44" stroke="black" stroke-width="1.42" stroke-linecap="round" stroke-linejoin="round"/>
<path id="Path_11" d="M162.38 157C162.38 157 142.38 151 137.38 130.32" stroke="black" stroke-width="1.42" stroke-linecap="round" stroke-linejoin="round"/>
<path id="Path_12" d="M153.51 14.6001C140.862 20.2282 127.143 23.043 113.3 22.8501" stroke="black" stroke-width="1.42" stroke-linecap="round" stroke-linejoin="round"/>
<path id="Path_13" d="M118.87 22.8601V194.4" stroke="black" stroke-width="1.42" stroke-linecap="round" stroke-linejoin="round"/>
<path id="Path_14" d="M222.8 170.7L223.33 179.17L200.61 186.81L196.85 179.72" stroke="black" stroke-width="1.42" stroke-linecap="round" stroke-linejoin="round"/>
</g>
</g>
</svg>
