<svg width="149" height="177" viewBox="0 0 149 177" fill="none" xmlns="http://www.w3.org/2000/svg">
<g id="Garment/long knitwear - F">
<g id="Calque_1">
<path id="Path" d="M74.5602 17C74.5602 17 51.6801 18.76 43.4801 1C36.2326 2.88227 29.0893 5.14541 22.0801 7.78C17.076 9.87026 13.455 14.3326 12.4401 19.66C12.4401 19.66 0.390149 67 1.09015 172.12C1.09015 172.12 9.95015 177.74 18.0901 172.12C18.0901 172.12 20.6801 77.34 30.9101 47.66C30.9101 47.66 35.0201 123.98 29.5301 169.2C29.5301 169.2 52.8302 175.61 74.6002 175.61" stroke="black" stroke-width="1.42" stroke-linecap="round" stroke-linejoin="round"/>
<path id="Path_2" d="M74.5602 17C74.5602 17 97.4402 18.76 105.63 1C112.867 2.87344 120 5.12656 127 7.75C132.004 9.84026 135.625 14.3026 136.64 19.63C136.64 19.63 148.73 67 148 172.12C148 172.12 139.14 177.74 131 172.12C131 172.12 128.41 77.34 118.18 47.66C118.18 47.66 114.07 123.98 119.56 169.2C119.56 169.2 96.2602 175.61 74.4902 175.61" stroke="black" stroke-width="1.42" stroke-linecap="round" stroke-linejoin="round"/>
<path id="Path_3" d="M30.8701 47.66C30.8701 47.66 31.5901 44.18 29.8201 36.09" stroke="black" stroke-width="1.42" stroke-linecap="round" stroke-linejoin="round"/>
<path id="Path_4" d="M118.27 47.67C118.27 47.67 117.55 44.19 119.32 36.1" stroke="black" stroke-width="1.42" stroke-linecap="round" stroke-linejoin="round"/>
<path id="Path_5" d="M36.55 2.72C36.55 2.72 40.72 23.12 74.55 23.12" stroke="black" stroke-width="1.42" stroke-linecap="round" stroke-linejoin="round"/>
<path id="Path_6" d="M112.57 2.72C112.57 2.72 108.4 23.12 74.5701 23.12" stroke="black" stroke-width="1.42" stroke-linecap="round" stroke-linejoin="round"/>
<path id="Path_7" d="M43.4802 1C43.4802 1 65.3302 14.35 105.63 1" stroke="black" stroke-width="1.42" stroke-linecap="round" stroke-linejoin="round"/>
<path id="Path_8" d="M1.07007 168.9C3.72638 170.234 6.66812 170.9 9.64007 170.84C9.64007 170.84 15.0101 170.73 18.1501 168.9" stroke="black" stroke-width="1.42" stroke-linecap="round" stroke-linejoin="round"/>
<path id="Path_9" d="M131.11 168.9C133.766 170.234 136.708 170.9 139.68 170.84C139.68 170.84 145.05 170.73 148.19 168.9" stroke="black" stroke-width="1.42" stroke-linecap="round" stroke-linejoin="round"/>
<path id="Path_10" d="M29.9402 165.18C44.5416 168.784 59.5115 170.683 74.5502 170.84C89.5889 170.683 104.559 168.784 119.16 165.18" stroke="black" stroke-width="1.42" stroke-linecap="round" stroke-linejoin="round"/>
</g>
</g>
</svg>
