<svg width="238" height="212" viewBox="0 0 238 212" fill="none" xmlns="http://www.w3.org/2000/svg">
<g id="Garment/long shirt - F">
<g id="Calque_1">
<path id="Path" d="M57.3715 81.9615L55.8056 118.501L52.4502 195.656C101.663 211.576 118.441 211.163 118.441 211.163" stroke="black" stroke-width="1.42" stroke-linecap="round" stroke-linejoin="round"/>
<path id="Path_2" d="M118.53 1.39075C118.53 1.39075 100.567 1.89313 99.1917 2.38434C97.8159 2.87556 92.3465 12.432 92.3465 12.432C92.3465 12.432 52.741 30.8749 44.0504 45.2988C35.3598 59.7228 1 181.288 1 181.288L18.7391 189.103L56.432 104.256V104.256" stroke="black" stroke-width="1.42" stroke-linecap="round" stroke-linejoin="round"/>
<path id="Path_3" d="M64.3398 50.3115C64.3398 50.3115 66.655 44.361 63.4226 28.3965" stroke="black" stroke-width="1.42" stroke-linecap="round" stroke-linejoin="round"/>
<path id="Path_4" d="M92.3466 12.4431C92.3466 12.4431 97.939 37.7743 103.129 39.8954C103.129 39.8954 103.722 40.5541 105.645 38.5669C107.569 36.5797 112.848 26.7889 118.53 26.7889" stroke="black" stroke-width="1.42" stroke-linecap="round" stroke-linejoin="round"/>
<path id="Path_5" d="M99.1917 2.38434C99.1917 2.38434 112.032 26.2084 118.53 26.2307" stroke="black" stroke-width="1.42" stroke-linecap="round" stroke-linejoin="round"/>
<path id="Path_6" d="M118.53 12.4431L105.444 12.8227" stroke="black" stroke-width="1.42" stroke-linecap="round" stroke-linejoin="round"/>
<path id="Path_7" d="M114.336 28.3965L113.777 210.85" stroke="black" stroke-width="1.42" stroke-linecap="round" stroke-linejoin="round"/>
<path id="Path_8" d="M118.53 211.174C118.53 211.174 135.375 211.576 184.521 195.667L181.165 118.512L179.599 81.9727" stroke="black" stroke-width="1.42" stroke-linecap="round" stroke-linejoin="round"/>
<path id="Path_9" d="M172.721 50.3115C172.721 50.3115 170.405 44.361 173.638 28.3965" stroke="black" stroke-width="1.42" stroke-linecap="round" stroke-linejoin="round"/>
<path id="Path_10" d="M144.714 12.4431C144.714 12.4431 139.122 37.7743 133.932 39.8954C133.932 39.8954 133.339 40.5541 131.415 38.5669C129.491 36.5797 124.235 26.7889 118.53 26.7889" stroke="black" stroke-width="1.42" stroke-linecap="round" stroke-linejoin="round"/>
<path id="Path_11" d="M137.869 2.38434C137.869 2.38434 125.04 26.2084 118.53 26.2307" stroke="black" stroke-width="1.42" stroke-linecap="round" stroke-linejoin="round"/>
<path id="Path_12" d="M118.53 12.4431L131.628 12.8227" stroke="black" stroke-width="1.42" stroke-linecap="round" stroke-linejoin="round"/>
<path id="Path_13" d="M122.736 28.3965L123.284 210.85" stroke="black" stroke-width="1.42" stroke-linecap="round" stroke-linejoin="round"/>
<path id="Path_14" d="M3.31531 173.093L22.4302 180.763" stroke="black" stroke-width="1.42" stroke-linecap="round" stroke-linejoin="round"/>
<path id="Path_15" d="M119 1.39075C119 1.39075 136.963 1.89313 138.339 2.38434C139.714 2.87556 145.184 12.432 145.184 12.432C145.184 12.432 184.789 30.8638 193.48 45.2877C202.17 59.7116 236.553 181.277 236.553 181.277L218.813 189.091L181.121 104.245V104.245" stroke="black" stroke-width="1.42" stroke-linecap="round" stroke-linejoin="round"/>
<path id="Path_16" d="M234.226 173.093L215.1 180.763" stroke="black" stroke-width="1.42" stroke-linecap="round" stroke-linejoin="round"/>
</g>
</g>
</svg>
