<svg width="167" height="90" viewBox="0 0 167 90" fill="none" xmlns="http://www.w3.org/2000/svg">
<g id="Garment/Personal pants - F">
<g id="Calque_1">
<path id="Path" d="M83.87 6.2701C59.92 7.8201 35.92 4.8201 12.61 1.6001" stroke="black" stroke-width="1.42" stroke-linecap="round" stroke-linejoin="round"/>
<path id="Path_2" d="M83.87 6.27009C105.3 6.68009 126.94 6.01009 148.16 2.80009C150.29 2.48009 152.41 2.13009 154.52 1.72009" stroke="black" stroke-width="1.42" stroke-linecap="round" stroke-linejoin="round"/>
<path id="Path_3" d="M12 2.1001C9.00005 13.8101 6.00005 24.8101 2.00005 36.8101C2.00005 38.8101 1.00005 40.8101 2.00005 41.8101C20.7995 58.7852 41.2323 73.8586 63 86.8101C70 89.8101 77.0001 88.8101 83.7401 88.8101" stroke="black" stroke-width="1.42" stroke-linecap="round" stroke-linejoin="round"/>
<path id="Path_4" d="M1.21002 41.3501C1.21002 41.3501 65.5 46.7901 69.13 88.8101" stroke="black" stroke-width="1.42" stroke-linecap="round" stroke-linejoin="round"/>
<path id="Path_5" d="M155.52 2.64014C157.93 15.8201 163.93 27.8201 165.93 40.8201C146.93 58.8201 126.93 72.8201 103.93 86.8201C101.93 87.8201 99.93 88.8201 97.93 88.8201H83.67" stroke="black" stroke-width="1.42" stroke-linecap="round" stroke-linejoin="round"/>
<path id="Path_6" d="M166.12 41.3501C166.12 41.3501 101.84 46.7901 98.2 88.8101" stroke="black" stroke-width="1.42" stroke-linecap="round" stroke-linejoin="round"/>
</g>
</g>
</svg>
