<svg width="152" height="107" viewBox="0 0 152 107" fill="none" xmlns="http://www.w3.org/2000/svg">
<g id="Garment/Personal bras - F">
<g id="Calque_1">
<path id="Path" d="M76 73.8199H72.33C70.5521 73.2969 68.9888 72.2174 67.87 70.7399C65.87 68.1799 45.96 54.7399 32.06 54.9999C18.16 55.2599 2.74 66.3499 2.74 66.3499C2.74 66.3499 1.23 67.8599 1.49 71.3499C1.75 74.8399 2.37 106.35 33.74 105.59C65.11 104.83 69.28 80.2899 69.28 80.2899L70.72 73.1699" stroke="black" stroke-width="1.42" stroke-linecap="round" stroke-linejoin="round"/>
<path id="Path_2" d="M63.94 91.7999C63.94 91.7999 67.42 90.9199 76.01 91.2699" stroke="black" stroke-width="1.42" stroke-linecap="round" stroke-linejoin="round"/>
<path id="Path_3" d="M15.89 59L8.22998 2.56997C8.22998 2.56997 10.06 -0.340029 12.61 2.00997L20.31 57.31" stroke="black" stroke-width="1.42" stroke-linecap="round" stroke-linejoin="round"/>
<path id="Path_4" d="M76 73.8199H79.68C81.4579 73.2969 83.0212 72.2174 84.14 70.7399C86.14 68.1799 106.05 54.7399 119.95 54.9999C133.85 55.2599 149.27 66.3499 149.27 66.3499C149.27 66.3499 150.78 67.8599 150.52 71.3499C150.26 74.8399 149.64 106.35 118.27 105.59C86.9 104.83 82.73 80.2899 82.73 80.2899L81.29 73.1699" stroke="black" stroke-width="1.42" stroke-linecap="round" stroke-linejoin="round"/>
<path id="Path_5" d="M88.08 91.7999C88.08 91.7999 84.6 90.9199 76.01 91.2699" stroke="black" stroke-width="1.42" stroke-linecap="round" stroke-linejoin="round"/>
<path id="Path_6" d="M136.13 58.9999L143.8 2.52992C143.8 2.52992 142 -0.340075 139.41 1.99992L131.71 57.2999" stroke="black" stroke-width="1.42" stroke-linecap="round" stroke-linejoin="round"/>
</g>
</g>
</svg>
