<svg width="199" height="168" viewBox="0 0 199 168" fill="none" xmlns="http://www.w3.org/2000/svg">
<g id="Garment/polo - F">
<g id="Calque_1">
<path id="Path" d="M99.3099 1.29H81.6199C79.8967 1.22359 78.2106 1.8011 76.8899 2.91C74.6499 4.78 68.1699 10.76 68.1699 10.76C66.7714 11.4612 65.3163 12.0433 63.8199 12.5C62.8199 12.62 45.8799 17.98 45.8799 17.98L1.41992 63.98L30.4199 93.25L45.8599 81.25L47.4199 166.36H99.2899" stroke="black" stroke-width="1.42" stroke-linecap="round" stroke-linejoin="round"/>
<path id="Path_2" d="M45.8799 17.98V81.24" stroke="black" stroke-width="1.42" stroke-linecap="round" stroke-linejoin="round"/>
<path id="Path_3" d="M68.1699 10.76L88.9999 32.4C89.5101 32.9672 90.2371 33.2911 90.9999 33.2911C91.7628 33.2911 92.4898 32.9672 92.9999 32.4C95.2199 30.4 99.4999 24.3 99.4999 24.3L79.2499 1.62" stroke="black" stroke-width="1.42" stroke-linecap="round" stroke-linejoin="round"/>
<path id="Path_4" d="M98.73 1.29H117.42C119.143 1.22359 120.829 1.8011 122.15 2.91C124.39 4.78 130.87 10.76 130.87 10.76C132.268 11.4612 133.724 12.0433 135.22 12.5C136.22 12.62 153.16 17.98 153.16 17.98L197.62 63.98L168.62 93.25L153.18 81.25L151.62 166.36H99.73" stroke="black" stroke-width="1.42" stroke-linecap="round" stroke-linejoin="round"/>
<path id="Path_5" d="M153.16 17.98V81.24" stroke="black" stroke-width="1.42" stroke-linecap="round" stroke-linejoin="round"/>
<path id="Path_6" d="M130.87 10.76L110 32.4C109.49 32.9672 108.763 33.2911 108 33.2911C107.237 33.2911 106.51 32.9672 106 32.4C103.78 30.4 99.4999 24.3 99.4999 24.3L119.77 1.62" stroke="black" stroke-width="1.42" stroke-linecap="round" stroke-linejoin="round"/>
<path id="Path_7" d="M86.2999 9.5H112.74" stroke="black" stroke-width="1.42" stroke-linecap="round" stroke-linejoin="round"/>
<path id="Path_8" d="M96.2099 28.76L96.1099 55.04H102.96V28.93" stroke="black" stroke-width="1.42" stroke-linecap="round" stroke-linejoin="round"/>
<path id="Path_9" d="M4.43994 60.82L33.7599 90.63" stroke="black" stroke-width="1.42" stroke-linecap="round" stroke-linejoin="round"/>
<path id="Path_10" d="M194.86 60.82L165.54 90.63" stroke="black" stroke-width="1.42" stroke-linecap="round" stroke-linejoin="round"/>
<path id="Path_11" d="M47.2799 159.82H151.35" stroke="black" stroke-width="1.42" stroke-linecap="round" stroke-linejoin="round"/>
</g>
</g>
</svg>
