<svg width="218" height="213" viewBox="0 0 218 213" fill="none" xmlns="http://www.w3.org/2000/svg">
<g id="Garment/shirt - F">
<g id="Calque_1">
<path id="Path" d="M47.5001 82L45.9401 118.61L42.6401 195.91C91.8301 211.85 108.64 211.45 108.64 211.45" stroke="black" stroke-width="1.42" stroke-linecap="round" stroke-linejoin="round"/>
<path id="Path_2" d="M108.66 1.31C108.66 1.31 90.6601 1.82 89.3201 2.31C87.9801 2.8 82.4801 12.39 82.4801 12.39C82.4801 12.39 42.8801 30.85 34.1801 45.3C25.4801 59.75 1.08008 99.54 1.08008 99.54L29.2901 116.2L37.2901 120.55L46.5001 104.33" stroke="black" stroke-width="1.42" stroke-linecap="round" stroke-linejoin="round"/>
<path id="Path_3" d="M54.47 50.32C54.47 50.32 56.78 44.32 53.55 28.32" stroke="black" stroke-width="1.42" stroke-linecap="round" stroke-linejoin="round"/>
<path id="Path_4" d="M82.4801 12.39C82.4801 12.39 88.0901 37.77 93.2601 39.89C93.2601 39.89 93.8601 40.55 95.7801 38.56C97.7001 36.57 103 26.76 108.66 26.76" stroke="black" stroke-width="1.42" stroke-linecap="round" stroke-linejoin="round"/>
<path id="Path_5" d="M89.3201 2.31C89.3201 2.31 102.16 26.18 108.66 26.2" stroke="black" stroke-width="1.42" stroke-linecap="round" stroke-linejoin="round"/>
<path id="Path_6" d="M108.66 12.39L95.5701 12.76" stroke="black" stroke-width="1.42" stroke-linecap="round" stroke-linejoin="round"/>
<path id="Path_7" d="M104.46 28.36L103.91 211.16" stroke="black" stroke-width="1.42" stroke-linecap="round" stroke-linejoin="round"/>
<path id="Path_8" d="M108.66 211.48C108.66 211.48 125.5 211.89 174.66 195.94L171.36 118.64L169.83 82" stroke="black" stroke-width="1.42" stroke-linecap="round" stroke-linejoin="round"/>
<path id="Path_9" d="M162.85 50.32C162.85 50.32 160.54 44.32 163.77 28.32" stroke="black" stroke-width="1.42" stroke-linecap="round" stroke-linejoin="round"/>
<path id="Path_10" d="M134.84 12.39C134.84 12.39 129.23 37.77 124.06 39.89C124.06 39.89 123.46 40.55 121.54 38.56C119.62 36.57 114.36 26.75 108.66 26.75" stroke="black" stroke-width="1.42" stroke-linecap="round" stroke-linejoin="round"/>
<path id="Path_11" d="M128 2.31C128 2.31 115.16 26.18 108.66 26.2" stroke="black" stroke-width="1.42" stroke-linecap="round" stroke-linejoin="round"/>
<path id="Path_12" d="M108.66 12.39L121.75 12.76" stroke="black" stroke-width="1.42" stroke-linecap="round" stroke-linejoin="round"/>
<path id="Path_13" d="M112.86 28.36L113.42 211.16" stroke="black" stroke-width="1.42" stroke-linecap="round" stroke-linejoin="round"/>
<path id="Path_14" d="M109.12 1.31C109.12 1.31 127.12 1.82 128.46 2.31C129.8 2.8 135.3 12.39 135.3 12.39C135.3 12.39 174.9 30.85 183.6 45.3C192.3 59.75 216.7 99.54 216.7 99.54L188.49 116.2L180.49 120.55L171.28 104.33" stroke="black" stroke-width="1.42" stroke-linecap="round" stroke-linejoin="round"/>
<path id="Path_15" d="M3.7301 95.22L39.9301 115.99" stroke="black" stroke-width="1.42" stroke-linecap="round" stroke-linejoin="round"/>
<path id="Path_16" d="M213.9 95.22L177.71 115.99" stroke="black" stroke-width="1.42" stroke-linecap="round" stroke-linejoin="round"/>
</g>
</g>
</svg>
