<svg width="148" height="227" viewBox="0 0 148 227" fill="none" xmlns="http://www.w3.org/2000/svg">
<g id="Garment/Skirts long - F">
<g id="Calque_1">
<path id="Path" d="M73.7401 0.880001H19.2001C19.2001 0.880001 16.8301 1.77 16.8301 6.22V24H73.7401" stroke="black" stroke-width="1.42" stroke-linecap="round" stroke-linejoin="round"/>
<path id="Path_2" d="M73.7401 226.29H1.29007C1.29007 226.29 -3.78993 74.5 16.8301 24" stroke="black" stroke-width="1.42" stroke-linecap="round" stroke-linejoin="round"/>
<path id="Path_3" d="M38.47 24V57.58C38.47 57.58 40.17 60.74 42.84 57.58V24" stroke="black" stroke-width="1.42" stroke-linecap="round" stroke-linejoin="round"/>
<path id="Path_4" d="M73.74 0.880001H128.28C128.28 0.880001 130.65 1.77 130.65 6.22V24H73.74" stroke="black" stroke-width="1.42" stroke-linecap="round" stroke-linejoin="round"/>
<path id="Path_5" d="M73.74 226.29H146.19C146.19 226.29 151.27 74.5 130.65 24" stroke="black" stroke-width="1.42" stroke-linecap="round" stroke-linejoin="round"/>
<path id="Path_6" d="M109 24V57.58C109 57.58 107.3 60.74 104.63 57.58V24" stroke="black" stroke-width="1.42" stroke-linecap="round" stroke-linejoin="round"/>
<path id="Path_7" d="M1.13013 220.47H146.19" stroke="black" stroke-width="1.42" stroke-linecap="round" stroke-linejoin="round"/>
</g>
</g>
</svg>
