<svg width="82" height="142" viewBox="0 0 82 142" fill="none" xmlns="http://www.w3.org/2000/svg">
<g id="Garment/socks - R - L">
<g id="Calque_1">
<path id="Path" fill-rule="evenodd" clip-rule="evenodd" d="M43.88 0.940002H3.39996C3.39996 0.940002 4.25996 64.3 1.65996 76.24C-1.05004 88.69 8.65996 102.36 15.37 103.24C15.37 103.24 38.88 113.03 53.02 134.36C53.02 134.36 62.6 145.24 73.7 138.06C84.8 130.88 79.58 119.13 79.58 119.13C79.58 119.13 70.45 103 50.48 77C49.699 75.9859 49.0033 74.9089 48.4 73.78C44.0024 65.4486 41.5155 56.2424 41.12 46.83C40.62 30.32 43.88 0.940002 43.88 0.940002Z" stroke="black" stroke-width="1.42" stroke-linecap="round" stroke-linejoin="round"/>
<path id="Path_2" d="M42.34 17.31H3.89996" stroke="black" stroke-width="1.42" stroke-linecap="round" stroke-linejoin="round"/>
<path id="Path_3" d="M15.3699 103.23C15.3699 103.23 36.4599 75.68 3.36993 65.32" stroke="black" stroke-width="1.42" stroke-linecap="round" stroke-linejoin="round"/>
<path id="Path_4" d="M73.67 109.59C73.67 109.59 47.92 128 53 134.36" stroke="black" stroke-width="1.42" stroke-linecap="round" stroke-linejoin="round"/>
</g>
</g>
</svg>
