<svg width="145" height="277" viewBox="0 0 145 277" fill="none" xmlns="http://www.w3.org/2000/svg">
<g id="Garment/Sportswear swimsuit womens - F">
<g id="Calque_1">
<path id="Path" fill-rule="evenodd" clip-rule="evenodd" d="M72.61 276.09H91.67C107.02 239.73 143.67 223.03 143.67 223.03C145.29 199.03 131.28 181.03 129.39 151.38C127.5 121.73 131.54 116.63 134.51 94.5499C137.48 72.4699 139.41 57.77 132.09 40.68C124.77 23.59 123.22 1.44995 123.22 1.44995H108.63C108.29 21.22 101.63 39.31 101.63 39.31C92.08 66.78 72.63 66.31 72.63 66.31C72.63 66.31 53.19 66.81 43.63 39.31C43.63 39.31 36.93 21.22 36.63 1.44995H22C22 1.44995 20.46 23.58 13.13 40.68C5.80002 57.78 7.74002 72.4599 10.71 94.5499C13.68 116.64 17.71 121.76 15.83 151.38C13.95 181 -0.0599796 199.05 1.56002 223C1.56002 223 38.19 239.7 53.56 276.06L72.61 276.09Z" stroke="black" stroke-width="1.42" stroke-linecap="round" stroke-linejoin="round"/>
</g>
</g>
</svg>
