<svg width="194" height="232" viewBox="0 0 194 232" fill="none" xmlns="http://www.w3.org/2000/svg">
<g id="Garment/sweatshirt - F">
<g id="Calque_1">
<path id="Path" d="M97 1.31995C97 1.31995 73.83 1.87995 62.45 36.6099C59.289 46.7073 59.5491 57.5656 63.19 67.4999C63.19 67.4999 57.74 72.9999 42.37 80.9499C27 88.8999 24.37 88.3399 19.32 102.67C14.27 117 1.23999 200 1.23999 200L30.13 209.89L43.53 141C43.53 141 44.76 132.52 42.79 126.82" stroke="black" stroke-width="1.42" stroke-linejoin="round"/>
<path id="Path_2" d="M2.90993 201.19L2.42993 208.91L23.1499 215.89L26.5799 209.41" stroke="black" stroke-width="1.42" stroke-linecap="round" stroke-linejoin="round"/>
<path id="Path_3" d="M43.53 141V215.88C43.53 215.88 43.77 220.33 47.02 221.76C50.27 223.19 70.65 230.31 97.02 230.31" stroke="black" stroke-width="1.42" stroke-linecap="round" stroke-linejoin="round"/>
<path id="Path_4" d="M55.89 206.17C55.89 206.17 71.09 202.29 76.32 183.37" stroke="black" stroke-width="1.42" stroke-linecap="round" stroke-linejoin="round"/>
<path id="Path_5" d="M78.6 81.86V110.87" stroke="black" stroke-width="1.42" stroke-linecap="round" stroke-linejoin="round"/>
<circle id="Oval" cx="78.6" cy="113.69" r="2.82" stroke="black" stroke-width="1.42" stroke-linecap="round" stroke-linejoin="round"/>
<path id="Path_6" d="M68.42 74.4399C68.42 74.4399 74.42 84.5599 97.01 84.5599" stroke="black" stroke-width="1.42" stroke-linecap="round" stroke-linejoin="round"/>
<path id="Path_7" d="M97 12.7599C97 12.7599 78.92 15.6099 71.89 43.4399C65.82 67.5899 83.18 71.8999 83.18 71.8999C83.18 71.8999 86.18 73.3299 97 73.3299" stroke="black" stroke-width="1.42" stroke-linecap="round" stroke-linejoin="round"/>
<path id="Path_8" d="M97 1.31995C97 1.31995 120.17 1.87995 131.55 36.6099C134.711 46.7073 134.451 57.5656 130.81 67.4999C130.81 67.4999 136.28 72.9699 151.65 80.9499C167.02 88.9299 169.65 88.3399 174.7 102.67C179.75 117 192.79 200 192.79 200L163.9 209.89L150.49 141C150.49 141 149.26 132.52 151.23 126.82" stroke="black" stroke-width="1.42" stroke-linejoin="round"/>
<path id="Path_9" d="M191.12 201.19L191.6 208.91L170.87 215.89L167.45 209.41" stroke="black" stroke-width="1.42" stroke-linecap="round" stroke-linejoin="round"/>
<path id="Path_10" d="M150.49 141V215.88C150.49 215.88 150.25 220.33 147 221.76C143.75 223.19 123.37 230.31 97 230.31" stroke="black" stroke-width="1.42" stroke-linecap="round" stroke-linejoin="round"/>
<path id="Path_11" d="M138.14 206.17C138.14 206.17 122.94 202.29 117.71 183.37" stroke="black" stroke-width="1.42" stroke-linecap="round" stroke-linejoin="round"/>
<path id="Path_12" d="M115.43 81.86V110.87" stroke="black" stroke-width="1.42" stroke-linecap="round" stroke-linejoin="round"/>
<circle id="Oval_2" cx="115.43" cy="113.69" r="2.82" stroke="black" stroke-width="1.42" stroke-linecap="round" stroke-linejoin="round"/>
<path id="Path_13" d="M125.61 74.4399C125.61 74.4399 119.61 84.5599 97.02 84.5599" stroke="black" stroke-width="1.42" stroke-linecap="round" stroke-linejoin="round"/>
<path id="Path_14" d="M97 12.7599C97 12.7599 115.08 15.6099 122.11 43.4399C128.2 67.5799 110.84 71.8899 110.84 71.8899C110.84 71.8899 107.84 73.32 97.02 73.32" stroke="black" stroke-width="1.42" stroke-linecap="round" stroke-linejoin="round"/>
</g>
</g>
</svg>
