<svg width="194" height="167" viewBox="0 0 194 167" fill="none" xmlns="http://www.w3.org/2000/svg">
<g id="Garment/T-shirt - F">
<g id="Calque_1">
<path id="Path" d="M96.94 6.80999C96.94 6.80999 79.43 6.80999 73.67 0.709991C73.67 0.709991 51.05 4.64999 37.67 18.6C24.29 32.55 31.76 22.6 0.869995 63.18L32.25 92.7L41 84.6L42.34 165.47H96.95" stroke="black" stroke-width="1.42" stroke-linecap="round" stroke-linejoin="round"/>
<path id="Path_2" d="M38.24 50.26C38.24 50.26 41 55.05 40.92 65.8C40.82 76.13 40.98 84.6 40.98 84.6" stroke="black" stroke-width="1.42" stroke-linecap="round" stroke-linejoin="round"/>
<path id="Path_3" d="M96.94 26.95C96.94 26.95 72.7 28.82 73.67 0.709991" stroke="black" stroke-width="1.42" stroke-linecap="round" stroke-linejoin="round"/>
<path id="Path_4" d="M96.9399 6.80999C96.9399 6.80999 114.45 6.80999 120.21 0.709991C120.21 0.709991 142.83 4.64999 156.21 18.6C169.59 32.55 162.12 22.6 193.01 63.18L161.63 92.7L152.9 84.6L151.56 165.47H96.9399" stroke="black" stroke-width="1.42" stroke-linecap="round" stroke-linejoin="round"/>
<path id="Path_5" d="M155.64 50.26C155.64 50.26 152.86 55.05 153 65.8C153.1 76.13 152.94 84.6 152.94 84.6" stroke="black" stroke-width="1.42" stroke-linecap="round" stroke-linejoin="round"/>
<path id="Path_6" d="M96.9399 26.95C96.9399 26.95 121.18 28.82 120.21 0.709991" stroke="black" stroke-width="1.42" stroke-linecap="round" stroke-linejoin="round"/>
<path id="Path_7" d="M42.3199 159.63H151.6" stroke="black" stroke-width="1.42" stroke-linecap="round" stroke-linejoin="round"/>
<path id="Path_8" d="M3.45996 59.7L35.49 89.7" stroke="black" stroke-width="1.42" stroke-linecap="round" stroke-linejoin="round"/>
<path id="Path_9" d="M190.13 59.7L158.11 89.7" stroke="black" stroke-width="1.42" stroke-linecap="round" stroke-linejoin="round"/>
</g>
</g>
</svg>
