<svg width="183" height="302" viewBox="0 0 183 302" fill="none" xmlns="http://www.w3.org/2000/svg">
<g id="Garment/Trousers shorts long - F">
<g id="Calque_1">
<path id="Path" d="M91.27 9.37C91.27 9.37 52.8 9.37 35.27 1.37C35.27 1.37 5.17 176.92 1 290.67C1 290.67 23.1 305.75 56.54 299.28L91.27 103.11" stroke="black" stroke-width="1.42" stroke-linecap="round" stroke-linejoin="round"/>
<path id="Path_2" d="M91.27 32.63C91.27 32.63 42.74 29.63 31.79 22.49" stroke="black" stroke-width="1.42" stroke-linecap="round" stroke-linejoin="round"/>
<path id="Path_3" d="M24.33 71C24.33 71 54.33 62.55 62.76 29.91" stroke="black" stroke-width="1.42" stroke-linecap="round" stroke-linejoin="round"/>
<path id="Path_4" d="M91.27 9.37C91.27 9.37 129.74 9.37 147.27 1.37C147.27 1.37 177.37 176.92 181.54 290.67C181.54 290.67 159.44 305.75 126 299.28L91.27 103.14" stroke="black" stroke-width="1.42" stroke-linecap="round" stroke-linejoin="round"/>
<path id="Path_5" d="M91.27 32.63C91.27 32.63 139.8 29.63 150.75 22.49" stroke="black" stroke-width="1.42" stroke-linecap="round" stroke-linejoin="round"/>
<path id="Path_6" d="M158.21 71C158.21 71 128.21 62.55 119.78 29.91" stroke="black" stroke-width="1.42" stroke-linecap="round" stroke-linejoin="round"/>
<path id="Path_7" d="M35.26 1.39999H147.27" stroke="black" stroke-width="1.42" stroke-linecap="round" stroke-linejoin="round"/>
<path id="Path_8" d="M87.77 32.39V63.53H94.23V32.39" stroke="black" stroke-width="1.42" stroke-linecap="round" stroke-linejoin="round"/>
<path id="Path_9" d="M1.19995 285.32C1.19995 285.32 28.87 300.32 57.68 292.81" stroke="black" stroke-width="1.42" stroke-linecap="round" stroke-linejoin="round"/>
<path id="Path_10" d="M181.54 285.32C181.54 285.32 153.87 300.32 125.06 292.81" stroke="black" stroke-width="1.42" stroke-linecap="round" stroke-linejoin="round"/>
</g>
</g>
</svg>
