<svg width="142" height="222" viewBox="0 0 142 222" fill="none" xmlns="http://www.w3.org/2000/svg">
<g id="Garment/Trousers shorts - F">
<g id="Calque_1">
<path id="Path" d="M71 9.13C71 9.13 32.53 9.13 15 1.13C15 1.13 4.89998 96.68 0.72998 210.43C0.72998 210.43 22.83 225.51 56.27 219.04L71 102.9" stroke="black" stroke-width="1.42" stroke-linecap="round" stroke-linejoin="round"/>
<path id="Path_2" d="M71 32.4C71 32.4 23.81 30.15 12.85 23" stroke="black" stroke-width="1.42" stroke-linecap="round" stroke-linejoin="round"/>
<path id="Path_3" d="M9 68.85C9 68.85 34 62.75 42.52 30.11" stroke="black" stroke-width="1.42" stroke-linecap="round" stroke-linejoin="round"/>
<path id="Path_4" d="M71 32.4C71 32.4 118.18 30.15 129.13 23.02" stroke="black" stroke-width="1.42" stroke-linecap="round" stroke-linejoin="round"/>
<path id="Path_5" d="M133 69.33C133 69.33 108 62.72 99.5601 30.09" stroke="black" stroke-width="1.42" stroke-linecap="round" stroke-linejoin="round"/>
<path id="Path_6" d="M14.98 1.16H126.99" stroke="black" stroke-width="1.42" stroke-linecap="round" stroke-linejoin="round"/>
<path id="Path_7" d="M67.48 32.15V63.29H73.94V32.15" stroke="black" stroke-width="1.42" stroke-linecap="round" stroke-linejoin="round"/>
<path id="Path_8" d="M0.919922 205.09C0.919922 205.09 28.5899 220.09 57.3999 212.58" stroke="black" stroke-width="1.42" stroke-linecap="round" stroke-linejoin="round"/>
<path id="Path_9" d="M71 9.13C71 9.13 109.47 9.13 127 1.13C127 1.13 137.1 96.68 141.27 210.43C141.27 210.43 119.17 225.51 85.73 219.04L71 102.9" stroke="black" stroke-width="1.42" stroke-linecap="round" stroke-linejoin="round"/>
<path id="Path_10" d="M141 205.09C141 205.09 113.33 220.09 84.52 212.58" stroke="black" stroke-width="1.42" stroke-linecap="round" stroke-linejoin="round"/>
</g>
</g>
</svg>
