<svg  viewBox="0 0 70 70" fill="none" xmlns="http://www.w3.org/2000/svg">
<path d="M56.2628 0.00024439C55.5827 0.0127182 55.0399 0.567803 55.0399 1.24762C55.0399 1.92433 55.5827 2.47943 56.2628 2.495H67.4998V13.8679V13.8648C67.4998 14.5571 68.0583 15.1153 68.7477 15.1153C69.4372 15.1153 69.9988 14.5571 69.9988 13.8648V1.25049C69.9988 0.561316 69.4434 0 68.754 0L56.2628 0.00024439ZM1.28667 0.0626132C0.952853 0.059495 0.634637 0.193586 0.397525 0.42747C0.163543 0.661354 0.0325161 0.982551 0.0325161 1.31313V13.7997C0.026277 14.1365 0.154183 14.4608 0.388165 14.7009C0.622146 14.941 0.943477 15.0751 1.28042 15.0751C1.61736 15.0751 1.93869 14.941 2.17268 14.7009C2.40666 14.4608 2.53456 14.1365 2.52833 13.7997V2.55771H13.9059C14.2429 2.56395 14.5673 2.43609 14.8075 2.20221C15.0478 1.96833 15.1819 1.64713 15.1819 1.31033C15.1819 0.973522 15.0478 0.652333 14.8075 0.418441C14.5673 0.181435 14.2429 0.0535843 13.9059 0.0629406L1.28667 0.0626132ZM7.52303 10.0448V28.7559H10.0188V10.0448H7.52303ZM12.5146 10.0448V28.7559H17.5093V10.0448H12.5146ZM21.2471 10.0448V28.7559H23.746V10.0448H21.2471ZM26.2418 10.0448V28.7559H28.7376V10.0448H26.2418ZM32.4875 10.0448V28.7559H37.4698V10.0448H32.4875ZM41.22 10.0448V28.7559H43.7158V10.0448H41.22ZM46.2116 10.0448V28.7559H48.7074V10.0448H46.2116ZM52.4479 10.0448V28.7559H57.4426V10.0448H52.4479ZM59.9384 10.0448V28.7559H62.4342V10.0448H59.9384ZM1.15593 33.7478V33.7447C0.47894 33.7977 -0.03271 34.3777 0.00163209 35.0575C0.0359494 35.7342 0.60686 36.2612 1.28699 36.2394H68.6702C69.3472 36.2238 69.89 35.6719 69.89 34.992C69.89 34.3153 69.3471 33.7602 68.6702 33.7447H1.28699H1.15596L1.15593 33.7478ZM7.52335 41.2352V59.9462L10.0191 59.9431V41.232L7.52335 41.2352ZM12.5149 41.2352V59.9462H17.5096V41.2352H12.5149ZM21.2474 41.2352V59.9462H23.7463V41.2352H21.2474ZM26.2421 41.2352V59.9462L28.7379 59.9431V41.232L26.2421 41.2352ZM32.4878 41.2352V59.9462H37.4701V41.2352H32.4878ZM41.2203 41.2352V59.9462H43.7161V41.2352H41.2203ZM46.2119 41.2352V59.9462H48.7077V41.2352H46.2119ZM52.4483 41.2352V59.9462L57.443 59.9431V41.232L52.4483 41.2352ZM59.9388 41.2352V59.9462H62.4346V41.2352H59.9388ZM1.26886 54.8689C0.938165 54.872 0.623073 55.0061 0.389059 55.2431C0.1582 55.4801 0.0302879 55.7982 0.0334106 56.1319V68.7462C0.0334106 69.0798 0.164438 69.3979 0.398419 69.6318C0.635524 69.8688 0.953731 69.9998 1.28756 69.9998H13.7793C14.1131 70.006 14.4376 69.8782 14.6778 69.6412C14.918 69.4073 15.0522 69.0861 15.0522 68.7524C15.0522 68.4156 14.918 68.0944 14.6778 67.8605C14.4376 67.6235 14.1131 67.4957 13.7793 67.505H2.52947V56.1321C2.53259 55.7953 2.40155 55.4741 2.16446 55.234C1.92735 54.997 1.60602 54.866 1.26909 54.8692L1.26886 54.8689ZM68.7367 54.9313C68.406 54.9344 68.0878 55.0716 67.8569 55.3055C67.6261 55.5425 67.4982 55.8637 67.5013 56.1942V67.4394H56.1269C55.4468 67.455 54.9071 68.007 54.9071 68.6868C54.9071 69.3635 55.4468 69.9186 56.1269 69.9342H68.7552C69.4446 69.931 69.9999 69.3697 69.9999 68.6805V56.194C70.0031 55.8572 69.872 55.536 69.6318 55.299C69.3947 55.0589 69.0734 54.9279 68.7364 54.931L68.7367 54.9313Z" fill="black"/>
</svg>
