<svg width="35" height="35" viewBox="0 0 35 35" fill="none" xmlns="http://www.w3.org/2000/svg">
<path fill-rule="evenodd" clip-rule="evenodd" d="M17.7164 28.9844C24.0591 28.9844 29.2008 23.8426 29.2008 17.5C29.2008 11.1574 24.0591 6.01562 17.7164 6.01562C11.3738 6.01562 6.23206 11.1574 6.23206 17.5C6.23206 23.8426 11.3738 28.9844 17.7164 28.9844ZM17.7164 30.625C24.9652 30.625 30.8414 24.7487 30.8414 17.5C30.8414 10.2513 24.9652 4.375 17.7164 4.375C10.4677 4.375 4.59143 10.2513 4.59143 17.5C4.59143 24.7487 10.4677 30.625 17.7164 30.625Z" fill="#42A71E"/>
<path fill-rule="evenodd" clip-rule="evenodd" d="M12.9114 17.3142C13.1962 17.0294 13.6578 17.0294 13.9426 17.3142L16.5824 19.954C16.8672 20.2388 16.8672 20.7005 16.5824 20.9852C16.2977 21.27 15.836 21.27 15.5512 20.9852L12.9114 18.3454C12.6266 18.0606 12.6266 17.5989 12.9114 17.3142Z" fill="#42A71E"/>
<path fill-rule="evenodd" clip-rule="evenodd" d="M15.551 20.9852C15.2662 20.7004 15.2662 20.2388 15.551 19.954L21.4902 14.0148C21.775 13.73 22.2367 13.73 22.5214 14.0148C22.8062 14.2995 22.8062 14.7612 22.5214 15.046L16.5822 20.9852C16.2974 21.27 15.8358 21.27 15.551 20.9852Z" fill="#42A71E"/>
</svg>
