<svg width="14" height="14" viewBox="0 0 14 14" fill="none" xmlns="http://www.w3.org/2000/svg">
<path fill-rule="evenodd" clip-rule="evenodd" d="M1.78812 0.297179C1.3976 -0.0953162 0.764438 -0.0953162 0.373917 0.297179C-0.0166053 0.689674 -0.0166053 1.32604 0.373916 1.71853L5.58834 6.9593L0.292891 12.2815C-0.0976305 12.674 -0.0976304 13.3104 0.292891 13.7029C0.683413 14.0954 1.31657 14.0954 1.7071 13.7029L7.00254 8.38065L12.293 13.6978C12.6835 14.0903 13.3166 14.0903 13.7072 13.6978C14.0977 13.3053 14.0977 12.6689 13.7072 12.2765L8.41675 6.9593L13.6261 1.72358C14.0167 1.33109 14.0167 0.694726 13.6261 0.302231C13.2356 -0.0902646 12.6025 -0.0902643 12.2119 0.302231L7.00254 5.53795L1.78812 0.297179Z" fill="black"/>
</svg>
