<svg width="14" height="11" viewBox="0 0 14 11" fill="none" xmlns="http://www.w3.org/2000/svg">
    <path d="M6.13398 0.499999C6.51888 -0.166667 7.48112 -0.166667 7.86603 0.5L13.0622 9.5C13.4471 10.1667 12.966 11 12.1962 11H1.80385C1.03405 11 0.552922 10.1667 0.937822 9.5L6.13398 0.499999Z" fill="#EB5757"/>
    <path d="M6.812 7.068C6.833 7.257 6.959 7.376 7.134 7.376C7.309 7.376 7.435 7.257 7.456 7.068L7.757 4.436C7.778 4.233 7.666 4.079 7.477 4.079H6.791C6.602 4.079 6.49 4.233 6.511 4.436L6.812 7.068ZM6.525 8.433V8.447C6.525 8.783 6.784 9.042 7.134 9.042C7.484 9.042 7.743 8.783 7.743 8.447V8.433C7.743 8.097 7.484 7.838 7.134 7.838C6.784 7.838 6.525 8.097 6.525 8.433Z" fill="white"/>
</svg>