<svg width="21" height="24" viewBox="0 0 21 24" fill="none" xmlns="http://www.w3.org/2000/svg">
<path fill-rule="evenodd" clip-rule="evenodd" d="M19.5 1.5H1.5V22.5H19.5V1.5ZM1.5 0C0.671573 0 0 0.671573 0 1.5V22.5C0 23.3284 0.671573 24 1.5 24H19.5C20.3284 24 21 23.3284 21 22.5V1.5C21 0.671573 20.3284 0 19.5 0H1.5Z" fill="#42A71E"/>
<path fill-rule="evenodd" clip-rule="evenodd" d="M4.5 18.75C4.5 18.3358 4.83579 18 5.25 18H11.25C11.6642 18 12 18.3358 12 18.75C12 19.1642 11.6642 19.5 11.25 19.5H5.25C4.83579 19.5 4.5 19.1642 4.5 18.75Z" fill="#42A71E"/>
<path fill-rule="evenodd" clip-rule="evenodd" d="M13.5 18.75C13.5 18.3358 13.8358 18 14.25 18H15.75C16.1642 18 16.5 18.3358 16.5 18.75C16.5 19.1642 16.1642 19.5 15.75 19.5H14.25C13.8358 19.5 13.5 19.1642 13.5 18.75Z" fill="#42A71E"/>
<path fill-rule="evenodd" clip-rule="evenodd" d="M4.5 12.75C4.5 12.3358 4.83579 12 5.25 12H11.25C11.6642 12 12 12.3358 12 12.75C12 13.1642 11.6642 13.5 11.25 13.5H5.25C4.83579 13.5 4.5 13.1642 4.5 12.75Z" fill="#42A71E"/>
<path fill-rule="evenodd" clip-rule="evenodd" d="M13.5 12.75C13.5 12.3358 13.8358 12 14.25 12H15.75C16.1642 12 16.5 12.3358 16.5 12.75C16.5 13.1642 16.1642 13.5 15.75 13.5H14.25C13.8358 13.5 13.5 13.1642 13.5 12.75Z" fill="#42A71E"/>
<path fill-rule="evenodd" clip-rule="evenodd" d="M4.5 6.75C4.5 6.33579 4.83579 6 5.25 6H11.25C11.6642 6 12 6.33579 12 6.75C12 7.16421 11.6642 7.5 11.25 7.5H5.25C4.83579 7.5 4.5 7.16421 4.5 6.75Z" fill="#42A71E"/>
<path fill-rule="evenodd" clip-rule="evenodd" d="M13.5 6.75C13.5 6.33579 13.8358 6 14.25 6H15.75C16.1642 6 16.5 6.33579 16.5 6.75C16.5 7.16421 16.1642 7.5 15.75 7.5H14.25C13.8358 7.5 13.5 7.16421 13.5 6.75Z" fill="#42A71E"/>
</svg>
