<svg width="24" height="24" viewBox="0 0 24 24" fill="none" xmlns="http://www.w3.org/2000/svg">
<path fill-rule="evenodd" clip-rule="evenodd" d="M20.8867 11.1437C20.8543 11.0873 20.8279 11.0274 20.8081 10.9652L19.8615 8.00091C19.7421 7.62706 19.4011 7.45233 19.0165 7.45233H16.8865V6.22331H19.0165C19.7857 6.22331 20.648 6.70463 20.8867 7.45233L21.7857 9.90358L22.8774 12.8132C22.941 12.9861 23 13.1118 23 13.2737V15.4265C23 16.4304 22.2041 17.2443 21.2222 17.2443H2.77778C1.79594 17.2443 1 16.4304 1 15.4265V6.87706C1 5.87311 1.79594 5.00586 2.77778 5.00586H15.6716C16.4309 5.00586 16.8865 5.44681 16.8865 6.22331L16.2663 6.5591C16.2663 6.28458 15.94 6.22331 15.6716 6.22331H2.77778C2.28686 6.22331 2.20968 6.37509 2.20968 6.87706V15.4265C2.20968 15.9285 2.28686 16.0183 2.77778 16.0183H21.2222C21.7131 16.0183 21.7857 15.9285 21.7857 15.4265V13.4761C21.7857 13.3425 21.7589 13.2103 21.707 13.0873L20.8867 11.1437Z" fill="black"/>
<path fill-rule="evenodd" clip-rule="evenodd" d="M16.8881 6.20459V10.0537C16.8881 10.2998 16.996 10.4982 17.2935 10.4982H21.6709V11.7591H17.2935C16.3977 11.7591 15.6743 10.7894 15.6743 10.0537V6.20459L16.8881 6.20459Z" fill="black"/>
<path d="M8.18364 16.3276C8.18364 17.3401 7.37958 18.1609 6.38772 18.1609C5.39586 18.1609 4.5918 17.3401 4.5918 16.3276C4.5918 15.3151 5.39586 14.4943 6.38772 14.4943C7.37958 14.4943 8.18364 15.3151 8.18364 16.3276Z" fill="white"/>
<circle cx="6.38779" cy="16.3276" r="2.1666" stroke="black"/>
<path d="M19.8575 16.3276C19.8575 17.3401 19.0534 18.1609 18.0615 18.1609C17.0697 18.1609 16.2656 17.3401 16.2656 16.3276C16.2656 15.3151 17.0697 14.4943 18.0615 14.4943C19.0534 14.4943 19.8575 15.3151 19.8575 16.3276Z" fill="white"/>
<circle cx="18.0611" cy="16.3276" r="2.1666" stroke="black"/>
</svg>
