<svg width="30" height="30" fill="#47454B" @click="removeLinkedAccount(item.id)" class="unlink" version="1.1" viewBox="0 0 700 700" xmlns="http://www.w3.org/2000/svg" xmlns:xlink="http://www.w3.org/1999/xlink">
<g>
<path d="m452.2 362.38 56.953 56.953-19.824 19.824-74.871-74.871h-47.656v-32.312h15.68l-35.727-35.168h-63.676v-33.039h30.574l-35.449-35.449h-12.203c-13.785-0.042969-27.016 5.4102-36.77 15.148-9.75 9.7422-15.219 22.969-15.191 36.754 0.027344 13.781 5.5469 26.988 15.336 36.688 9.6133 9.8555 22.863 15.305 36.625 15.066h67.762v32.312h-67.762c-22.273 0.33203-43.676-8.6641-59.023-24.809-15.648-15.84-24.426-37.207-24.426-59.473s8.7773-43.633 24.426-59.473c11.098-11.586 25.414-19.586 41.102-22.961l-57.23-56.895 19.824-19.824 74.871 75.152h0.39062l32.312 32.312h-0.44922l35.449 35.449 33.32 33.039 35.449 35.449 30.465 30.07zm41.105-22.902c15.648-15.84 24.426-37.207 24.426-59.473s-8.7773-43.633-24.426-59.473c-15.398-16.043-36.793-24.934-59.023-24.527h-67.48v32.312h67.762-0.003906c13.785-0.042969 27.016 5.4102 36.77 15.148 9.75 9.7422 15.219 22.969 15.191 36.754-0.027343 13.781-5.5469 26.988-15.336 36.688-3.5586 3.5781-7.5898 6.6484-11.984 9.1289l23.297 23.238v0.003907c3.8672-2.9609 7.4844-6.2383 10.809-9.8008z"/>
</g>
</svg>